<svg width="15" height="16" viewBox="0 0 15 16" fill="none" xmlns="http://www.w3.org/2000/svg">
<path d="M8.0625 8.5625C8.0625 8.71168 8.00324 8.85476 7.89775 8.96025C7.79226 9.06574 7.64918 9.125 7.5 9.125C7.35082 9.125 7.20774 9.06574 7.10225 8.96025C6.99676 8.85476 6.9375 8.71168 6.9375 8.5625C6.9375 8.41332 6.99676 8.27024 7.10225 8.16475C7.20774 8.05926 7.35082 8 7.5 8C7.64918 8 7.79226 8.05926 7.89775 8.16475C8.00324 8.27024 8.0625 8.41332 8.0625 8.5625ZM4.125 10.8125C4.27418 10.8125 4.41726 10.7532 4.52275 10.6477C4.62824 10.5423 4.6875 10.3992 4.6875 10.25C4.6875 10.1008 4.62824 9.95774 4.52275 9.85225C4.41726 9.74676 4.27418 9.6875 4.125 9.6875C3.97582 9.6875 3.83274 9.74676 3.72725 9.85225C3.62176 9.95774 3.5625 10.1008 3.5625 10.25C3.5625 10.3992 3.62176 10.5423 3.72725 10.6477C3.83274 10.7532 3.97582 10.8125 4.125 10.8125ZM4.6875 11.9375C4.6875 12.0867 4.62824 12.2298 4.52275 12.3352C4.41726 12.4407 4.27418 12.5 4.125 12.5C3.97582 12.5 3.83274 12.4407 3.72725 12.3352C3.62176 12.2298 3.5625 12.0867 3.5625 11.9375C3.5625 11.7883 3.62176 11.6452 3.72725 11.5398C3.83274 11.4343 3.97582 11.375 4.125 11.375C4.27418 11.375 4.41726 11.4343 4.52275 11.5398C4.62824 11.6452 4.6875 11.7883 4.6875 11.9375ZM5.8125 10.8125C5.96168 10.8125 6.10476 10.7532 6.21025 10.6477C6.31574 10.5423 6.375 10.3992 6.375 10.25C6.375 10.1008 6.31574 9.95774 6.21025 9.85225C6.10476 9.74676 5.96168 9.6875 5.8125 9.6875C5.66332 9.6875 5.52024 9.74676 5.41475 9.85225C5.30926 9.95774 5.25 10.1008 5.25 10.25C5.25 10.3992 5.30926 10.5423 5.41475 10.6477C5.52024 10.7532 5.66332 10.8125 5.8125 10.8125ZM6.375 11.9375C6.375 12.0867 6.31574 12.2298 6.21025 12.3352C6.10476 12.4407 5.96168 12.5 5.8125 12.5C5.66332 12.5 5.52024 12.4407 5.41475 12.3352C5.30926 12.2298 5.25 12.0867 5.25 11.9375C5.25 11.7883 5.30926 11.6452 5.41475 11.5398C5.52024 11.4343 5.66332 11.375 5.8125 11.375C5.96168 11.375 6.10476 11.4343 6.21025 11.5398C6.31574 11.6452 6.375 11.7883 6.375 11.9375ZM7.5 10.8125C7.64918 10.8125 7.79226 10.7532 7.89775 10.6477C8.00324 10.5423 8.0625 10.3992 8.0625 10.25C8.0625 10.1008 8.00324 9.95774 7.89775 9.85225C7.79226 9.74676 7.64918 9.6875 7.5 9.6875C7.35082 9.6875 7.20774 9.74676 7.10225 9.85225C6.99676 9.95774 6.9375 10.1008 6.9375 10.25C6.9375 10.3992 6.99676 10.5423 7.10225 10.6477C7.20774 10.7532 7.35082 10.8125 7.5 10.8125ZM8.0625 11.9375C8.0625 12.0867 8.00324 12.2298 7.89775 12.3352C7.79226 12.4407 7.64918 12.5 7.5 12.5C7.35082 12.5 7.20774 12.4407 7.10225 12.3352C6.99676 12.2298 6.9375 12.0867 6.9375 11.9375C6.9375 11.7883 6.99676 11.6452 7.10225 11.5398C7.20774 11.4343 7.35082 11.375 7.5 11.375C7.64918 11.375 7.79226 11.4343 7.89775 11.5398C8.00324 11.6452 8.0625 11.7883 8.0625 11.9375ZM9.1875 10.8125C9.33668 10.8125 9.47976 10.7532 9.58525 10.6477C9.69074 10.5423 9.75 10.3992 9.75 10.25C9.75 10.1008 9.69074 9.95774 9.58525 9.85225C9.47976 9.74676 9.33668 9.6875 9.1875 9.6875C9.03832 9.6875 8.89524 9.74676 8.78975 9.85225C8.68426 9.95774 8.625 10.1008 8.625 10.25C8.625 10.3992 8.68426 10.5423 8.78975 10.6477C8.89524 10.7532 9.03832 10.8125 9.1875 10.8125ZM9.75 11.9375C9.75 12.0867 9.69074 12.2298 9.58525 12.3352C9.47976 12.4407 9.33668 12.5 9.1875 12.5C9.03832 12.5 8.89524 12.4407 8.78975 12.3352C8.68426 12.2298 8.625 12.0867 8.625 11.9375C8.625 11.7883 8.68426 11.6452 8.78975 11.5398C8.89524 11.4343 9.03832 11.375 9.1875 11.375C9.33668 11.375 9.47976 11.4343 9.58525 11.5398C9.69074 11.6452 9.75 11.7883 9.75 11.9375ZM10.875 10.8125C11.0242 10.8125 11.1673 10.7532 11.2727 10.6477C11.3782 10.5423 11.4375 10.3992 11.4375 10.25C11.4375 10.1008 11.3782 9.95774 11.2727 9.85225C11.1673 9.74676 11.0242 9.6875 10.875 9.6875C10.7258 9.6875 10.5827 9.74676 10.4773 9.85225C10.3718 9.95774 10.3125 10.1008 10.3125 10.25C10.3125 10.3992 10.3718 10.5423 10.4773 10.6477C10.5827 10.7532 10.7258 10.8125 10.875 10.8125ZM9.75 8.5625C9.75 8.71168 9.69074 8.85476 9.58525 8.96025C9.47976 9.06574 9.33668 9.125 9.1875 9.125C9.03832 9.125 8.89524 9.06574 8.78975 8.96025C8.68426 8.85476 8.625 8.71168 8.625 8.5625C8.625 8.41332 8.68426 8.27024 8.78975 8.16475C8.89524 8.05926 9.03832 8 9.1875 8C9.33668 8 9.47976 8.05926 9.58525 8.16475C9.69074 8.27024 9.75 8.41332 9.75 8.5625ZM10.875 9.125C11.0242 9.125 11.1673 9.06574 11.2727 8.96025C11.3782 8.85476 11.4375 8.71168 11.4375 8.5625C11.4375 8.41332 11.3782 8.27024 11.2727 8.16475C11.1673 8.05926 11.0242 8 10.875 8C10.7258 8 10.5827 8.05926 10.4773 8.16475C10.3718 8.27024 10.3125 8.41332 10.3125 8.5625C10.3125 8.71168 10.3718 8.85476 10.4773 8.96025C10.5827 9.06574 10.7258 9.125 10.875 9.125Z" fill="#565656"/>
<path fill-rule="evenodd" clip-rule="evenodd" d="M3.5625 0.6875C3.71168 0.6875 3.85476 0.746763 3.96025 0.852252C4.06574 0.957742 4.125 1.10082 4.125 1.25V2.375H10.875V1.25C10.875 1.10082 10.9343 0.957742 11.0398 0.852252C11.1452 0.746763 11.2883 0.6875 11.4375 0.6875C11.5867 0.6875 11.7298 0.746763 11.8352 0.852252C11.9407 0.957742 12 1.10082 12 1.25V2.375H12.5625C13.1592 2.375 13.7315 2.61205 14.1535 3.03401C14.5754 3.45597 14.8125 4.02826 14.8125 4.625V13.0625C14.8125 13.6592 14.5754 14.2315 14.1535 14.6535C13.7315 15.0754 13.1592 15.3125 12.5625 15.3125H2.4375C1.84076 15.3125 1.26847 15.0754 0.84651 14.6535C0.424553 14.2315 0.1875 13.6592 0.1875 13.0625V4.625C0.1875 4.02826 0.424553 3.45597 0.84651 3.03401C1.26847 2.61205 1.84076 2.375 2.4375 2.375H3V1.25C3 1.10082 3.05926 0.957742 3.16475 0.852252C3.27024 0.746763 3.41332 0.6875 3.5625 0.6875ZM13.6875 7.4375C13.6875 7.13913 13.569 6.85298 13.358 6.642C13.147 6.43103 12.8609 6.3125 12.5625 6.3125H2.4375C2.13913 6.3125 1.85298 6.43103 1.642 6.642C1.43103 6.85298 1.3125 7.13913 1.3125 7.4375V13.0625C1.3125 13.3609 1.43103 13.647 1.642 13.858C1.85298 14.069 2.13913 14.1875 2.4375 14.1875H12.5625C12.8609 14.1875 13.147 14.069 13.358 13.858C13.569 13.647 13.6875 13.3609 13.6875 13.0625V7.4375Z" fill="#565656"/>
</svg>
