<svg width="18" height="19" viewBox="0 0 18 19" fill="none" xmlns="http://www.w3.org/2000/svg">
<path d="M13.5449 5.00195H13.5537M4.68144 1.20215H13.1224C15.4534 1.20215 17.3429 3.09173 17.3429 5.42265V13.8636C17.3429 16.1946 15.4534 18.0841 13.1224 18.0841H4.68144C2.35052 18.0841 0.460938 16.1946 0.460938 13.8636V5.42265C0.460938 3.09173 2.35052 1.20215 4.68144 1.20215ZM12.2788 9.11259C12.383 9.81508 12.263 10.5325 11.9359 11.1629C11.6088 11.7933 11.0913 12.3045 10.4569 12.6238C9.82254 12.9431 9.10366 13.0542 8.40249 12.9414C7.70133 12.8285 7.0536 12.4975 6.55143 11.9953C6.04925 11.4931 5.71821 10.8454 5.60539 10.1443C5.49256 9.4431 5.60369 8.72421 5.92299 8.08985C6.24228 7.45549 6.75346 6.93797 7.38383 6.61088C8.01421 6.28379 8.73167 6.1638 9.43417 6.26797C10.1507 6.37423 10.8141 6.70814 11.3264 7.22037C11.8386 7.73261 12.1725 8.39601 12.2788 9.11259Z" stroke="#EAEAF1" stroke-opacity="0.8" stroke-width="0.8441" stroke-linecap="round" stroke-linejoin="round"/>
</svg>
