<svg width="21" height="21" viewBox="0 0 21 21" fill="none" xmlns="http://www.w3.org/2000/svg">
<path d="M13.506 7.26758C14.8492 7.26758 16.1374 7.80117 17.0872 8.75096C18.037 9.70076 18.5706 10.989 18.5706 12.3322V18.2409H15.1942V12.3322C15.1942 11.8844 15.0163 11.455 14.6997 11.1384C14.3831 10.8218 13.9537 10.644 13.506 10.644C13.0583 10.644 12.6289 10.8218 12.3123 11.1384C11.9957 11.455 11.8178 11.8844 11.8178 12.3322V18.2409H8.44141V12.3322C8.44141 10.989 8.975 9.70076 9.92479 8.75096C10.8746 7.80117 12.1628 7.26758 13.506 7.26758Z" stroke="#EAEAF1" stroke-opacity="0.8" stroke-width="0.8441" stroke-linecap="round" stroke-linejoin="round"/>
<path d="M5.06585 8.11133H1.68945V18.2405H5.06585V8.11133Z" stroke="#EAEAF1" stroke-opacity="0.8" stroke-width="0.8441" stroke-linecap="round" stroke-linejoin="round"/>
<path d="M3.37765 5.57855C4.31002 5.57855 5.06585 4.82271 5.06585 3.89035C5.06585 2.95798 4.31002 2.20215 3.37765 2.20215C2.44529 2.20215 1.68945 2.95798 1.68945 3.89035C1.68945 4.82271 2.44529 5.57855 3.37765 5.57855Z" stroke="#EAEAF1" stroke-opacity="0.8" stroke-width="0.8441" stroke-linecap="round" stroke-linejoin="round"/>
</svg>
