<svg width="15" height="16" viewBox="0 0 15 16" fill="none" xmlns="http://www.w3.org/2000/svg">
<path fill-rule="evenodd" clip-rule="evenodd" d="M4.62075 0.935017C4.81611 0.837269 5.03155 0.786377 5.25 0.786377C5.46845 0.786377 5.68389 0.837269 5.87925 0.935017L9.624 2.80852C9.7035 2.84752 9.7965 2.84752 9.876 2.80852L12.7778 1.35727C12.9921 1.25016 13.2303 1.19962 13.4697 1.21044C13.7091 1.22125 13.9418 1.29307 14.1456 1.41908C14.3495 1.54508 14.5178 1.72109 14.6345 1.9304C14.7512 2.13971 14.8125 2.37537 14.8125 2.61502V11.9788C14.8125 12.5113 14.5117 12.9988 14.0347 13.2365L10.3785 15.0643C10.1833 15.1618 9.96816 15.2125 9.75 15.2125C9.53184 15.2125 9.31666 15.1618 9.1215 15.0643L5.376 13.1915C5.33689 13.1719 5.29375 13.1617 5.25 13.1617C5.20625 13.1617 5.16311 13.1719 5.124 13.1915L2.223 14.6428C2.00859 14.75 1.77031 14.8007 1.5308 14.79C1.29129 14.7793 1.05851 14.7075 0.85455 14.5815C0.650595 14.4554 0.482247 14.2793 0.365498 14.0699C0.248749 13.8605 0.187476 13.6248 0.1875 13.385V4.02127C0.1875 3.48877 0.48825 3.00127 0.9645 2.76352L4.62075 0.935767V0.935017ZM5.25 3.50002C5.39918 3.50002 5.54226 3.55928 5.64775 3.66477C5.75324 3.77026 5.8125 3.91333 5.8125 4.06252V10.25C5.8125 10.3992 5.75324 10.5423 5.64775 10.6478C5.54226 10.7533 5.39918 10.8125 5.25 10.8125C5.10082 10.8125 4.95774 10.7533 4.85225 10.6478C4.74676 10.5423 4.6875 10.3992 4.6875 10.25V4.06252C4.6875 3.91333 4.74676 3.77026 4.85225 3.66477C4.95774 3.55928 5.10082 3.50002 5.25 3.50002ZM10.3125 5.75002C10.3125 5.60083 10.2532 5.45776 10.1477 5.35227C10.0423 5.24678 9.89918 5.18752 9.75 5.18752C9.60082 5.18752 9.45774 5.24678 9.35225 5.35227C9.24676 5.45776 9.1875 5.60083 9.1875 5.75002V11.9375C9.1875 12.0867 9.24676 12.2298 9.35225 12.3353C9.45774 12.4408 9.60082 12.5 9.75 12.5C9.89918 12.5 10.0423 12.4408 10.1477 12.3353C10.2532 12.2298 10.3125 12.0867 10.3125 11.9375V5.75002Z" fill="#565656"/>
</svg>
