<svg width="107" height="105" viewBox="0 0 107 105" fill="none" xmlns="http://www.w3.org/2000/svg">
<g filter="url(#filter0_bd_14_403)">
<mask id="path-1-inside-1_14_403" fill="white">
<path fill-rule="evenodd" clip-rule="evenodd" d="M53.2769 98C80.3388 98 102.277 76.062 102.277 49C102.277 21.938 80.3388 0 53.2769 0C26.2149 0 4.27686 21.938 4.27686 49C4.27686 76.062 26.2149 98 53.2769 98ZM76.8037 50.9164C78.137 50.1466 78.137 48.2221 76.8037 47.4523L43.2906 28.1035C41.9572 27.3337 40.2906 28.296 40.2906 29.8356L40.2906 68.5332C40.2906 70.0728 41.9572 71.0351 43.2906 70.2653L76.8037 50.9164Z"/>
</mask>
<path fill-rule="evenodd" clip-rule="evenodd" d="M53.2769 98C80.3388 98 102.277 76.062 102.277 49C102.277 21.938 80.3388 0 53.2769 0C26.2149 0 4.27686 21.938 4.27686 49C4.27686 76.062 26.2149 98 53.2769 98ZM76.8037 50.9164C78.137 50.1466 78.137 48.2221 76.8037 47.4523L43.2906 28.1035C41.9572 27.3337 40.2906 28.296 40.2906 29.8356L40.2906 68.5332C40.2906 70.0728 41.9572 71.0351 43.2906 70.2653L76.8037 50.9164Z" fill="white" fill-opacity="0.3" shape-rendering="crispEdges"/>
<path d="M76.8037 47.4523L76.3037 48.3184L76.3037 48.3184L76.8037 47.4523ZM76.8037 50.9164L77.3037 51.7825L77.3037 51.7825L76.8037 50.9164ZM43.2906 28.1035L42.7906 28.9695L42.7906 28.9695L43.2906 28.1035ZM40.2906 29.8356L41.2906 29.8356V29.8356H40.2906ZM40.2906 68.5332L39.2906 68.5332V68.5332H40.2906ZM43.2906 70.2653L42.7906 69.3992L42.7905 69.3992L43.2906 70.2653ZM101.277 49C101.277 75.5097 79.7865 97 53.2769 97V99C80.8911 99 103.277 76.6142 103.277 49H101.277ZM53.2769 1C79.7865 1 101.277 22.4903 101.277 49H103.277C103.277 21.3858 80.8911 -1 53.2769 -1V1ZM5.27686 49C5.27686 22.4903 26.7672 1 53.2769 1V-1C25.6626 -1 3.27686 21.3858 3.27686 49H5.27686ZM53.2769 97C26.7672 97 5.27686 75.5097 5.27686 49H3.27686C3.27686 76.6142 25.6626 99 53.2769 99V97ZM76.3037 48.3184C76.9704 48.7033 76.9704 49.6655 76.3037 50.0504L77.3037 51.7825C79.3037 50.6278 79.3037 47.741 77.3037 46.5863L76.3037 48.3184ZM42.7906 28.9695L76.3037 48.3184L77.3037 46.5863L43.7906 27.2375L42.7906 28.9695ZM41.2906 29.8356C41.2906 29.0658 42.1239 28.5846 42.7906 28.9695L43.7906 27.2375C41.7906 26.0828 39.2906 27.5262 39.2906 29.8356H41.2906ZM41.2906 68.5332L41.2906 29.8356L39.2906 29.8356L39.2906 68.5332L41.2906 68.5332ZM42.7905 69.3992C42.1239 69.7841 41.2906 69.303 41.2906 68.5332H39.2906C39.2906 70.8426 41.7905 72.286 43.7906 71.1313L42.7905 69.3992ZM76.3037 50.0504L42.7906 69.3992L43.7906 71.1313L77.3037 51.7825L76.3037 50.0504Z" fill="#989898" fill-opacity="0.47" mask="url(#path-1-inside-1_14_403)"/>
</g>
<defs>
<filter id="filter0_bd_14_403" x="-7.72314" y="-12" width="122" height="122" filterUnits="userSpaceOnUse" color-interpolation-filters="sRGB">
<feFlood flood-opacity="0" result="BackgroundImageFix"/>
<feGaussianBlur in="BackgroundImageFix" stdDeviation="6"/>
<feComposite in2="SourceAlpha" operator="in" result="effect1_backgroundBlur_14_403"/>
<feColorMatrix in="SourceAlpha" type="matrix" values="0 0 0 0 0 0 0 0 0 0 0 0 0 0 0 0 0 0 127 0" result="hardAlpha"/>
<feOffset dy="4"/>
<feGaussianBlur stdDeviation="2"/>
<feComposite in2="hardAlpha" operator="out"/>
<feColorMatrix type="matrix" values="0 0 0 0 0 0 0 0 0 0 0 0 0 0 0 0 0 0 0.25 0"/>
<feBlend mode="normal" in2="effect1_backgroundBlur_14_403" result="effect2_dropShadow_14_403"/>
<feBlend mode="normal" in="SourceGraphic" in2="effect2_dropShadow_14_403" result="shape"/>
</filter>
</defs>
</svg>
