<svg width="17" height="16" viewBox="0 0 17 16" fill="none" xmlns="http://www.w3.org/2000/svg">
<path d="M2.875 3.78125C2.875 2.96074 3.20095 2.17383 3.78114 1.59364C4.36133 1.01345 5.14824 0.6875 5.96875 0.6875C6.78926 0.6875 7.57617 1.01345 8.15636 1.59364C8.73655 2.17383 9.0625 2.96074 9.0625 3.78125C9.0625 4.60176 8.73655 5.38867 8.15636 5.96886C7.57617 6.54905 6.78926 6.875 5.96875 6.875C5.14824 6.875 4.36133 6.54905 3.78114 5.96886C3.20095 5.38867 2.875 4.60176 2.875 3.78125ZM10.1875 5.46875C10.1875 5.13634 10.253 4.80719 10.3802 4.50008C10.5074 4.19298 10.6938 3.91393 10.9289 3.67889C11.1639 3.44384 11.443 3.25739 11.7501 3.13018C12.0572 3.00297 12.3863 2.9375 12.7188 2.9375C13.0512 2.9375 13.3803 3.00297 13.6874 3.13018C13.9945 3.25739 14.2736 3.44384 14.5086 3.67889C14.7437 3.91393 14.9301 4.19298 15.0573 4.50008C15.1845 4.80719 15.25 5.13634 15.25 5.46875C15.25 6.14008 14.9833 6.78391 14.5086 7.25861C14.0339 7.73332 13.3901 8 12.7188 8C12.0474 8 11.4036 7.73332 10.9289 7.25861C10.4542 6.78391 10.1875 6.14008 10.1875 5.46875ZM0.625 13.3438C0.625 11.9265 1.188 10.5673 2.19015 9.56515C3.1923 8.563 4.5515 8 5.96875 8C7.386 8 8.7452 8.563 9.74735 9.56515C10.7495 10.5673 11.3125 11.9265 11.3125 13.3438V13.346L11.3117 13.4352C11.3102 13.5306 11.2843 13.624 11.2367 13.7067C11.1891 13.7894 11.1212 13.8585 11.0395 13.9078C9.5089 14.8295 7.75545 15.3152 5.96875 15.3125C4.11475 15.3125 2.37925 14.7995 0.89875 13.9078C0.816888 13.8586 0.748875 13.7895 0.701115 13.7068C0.653355 13.6242 0.627419 13.5307 0.62575 13.4352L0.625 13.3438ZM12.4375 13.346L12.4368 13.454C12.4326 13.704 12.3729 13.9499 12.262 14.174C13.5713 14.2548 14.8791 13.9937 16.057 13.4165C16.1481 13.372 16.2255 13.3036 16.2809 13.2188C16.3364 13.1339 16.3678 13.0356 16.372 12.9342C16.3985 12.3052 16.2621 11.6799 15.9759 11.1191C15.6898 10.5582 15.2637 10.0807 14.7389 9.73288C14.2141 9.38503 13.6083 9.17861 12.9803 9.13361C12.3523 9.08861 11.7233 9.20654 11.1542 9.476C11.9891 10.5924 12.4392 11.9497 12.4368 13.3438V13.346H12.4375Z" fill="#565656"/>
</svg>
