<svg width="21" height="17" viewBox="0 0 21 17" fill="none" xmlns="http://www.w3.org/2000/svg">
<path d="M19.6718 1.04657C18.8634 1.61674 17.9685 2.05283 17.0213 2.33805C16.5129 1.75352 15.8373 1.33922 15.0858 1.15118C14.3343 0.963143 13.5432 1.01044 12.8194 1.28668C12.0957 1.56292 11.4742 2.05477 11.0391 2.69571C10.604 3.33664 10.3763 4.09575 10.3867 4.87035V5.71445C8.90327 5.75291 7.43339 5.42392 6.10793 4.75677C4.78247 4.08962 3.64257 3.10503 2.78976 1.89067C2.78976 1.89067 -0.586637 9.48757 7.01026 12.864C5.27186 14.044 3.20097 14.6357 1.10156 14.5522C8.69846 18.7727 17.9836 14.5522 17.9836 4.84502C17.9828 4.6099 17.9602 4.37536 17.916 4.14442C18.7775 3.29483 19.3855 2.22216 19.6718 1.04657V1.04657Z" stroke="#EAEAF1" stroke-opacity="0.8" stroke-width="0.8441" stroke-linecap="round" stroke-linejoin="round"/>
</svg>
