<svg width="150" height="151" viewBox="0 0 150 151" fill="none" xmlns="http://www.w3.org/2000/svg">
<path d="M8.04232 4.97235C8.04232 7.19319 6.24199 8.99353 4.02116 8.99353C1.80033 8.99353 0 7.19319 0 4.97235C0 2.75152 1.80033 0.951172 4.02116 0.951172C6.24199 0.951172 8.04232 2.75152 8.04232 4.97235Z" fill="#BEC2D9"/>
<path d="M8.04232 17.7809C8.04232 20.0018 6.24199 21.8021 4.02116 21.8021C1.80033 21.8021 0 20.0018 0 17.7809C0 15.5601 1.80033 13.7598 4.02116 13.7598C6.24199 13.7598 8.04232 15.5601 8.04232 17.7809Z" fill="#BEC2D9"/>
<path d="M8.04232 30.5886C8.04232 32.8094 6.24199 34.6097 4.02116 34.6097C1.80033 34.6097 0 32.8094 0 30.5886C0 28.3677 1.80033 26.5674 4.02116 26.5674C6.24199 26.5674 8.04232 28.3677 8.04232 30.5886Z" fill="#BEC2D9"/>
<path d="M8.04232 43.3972C8.04232 45.618 6.24199 47.4183 4.02116 47.4183C1.80033 47.4183 0 45.618 0 43.3972C0 41.1763 1.80033 39.376 4.02116 39.376C6.24199 39.376 8.04232 41.1763 8.04232 43.3972Z" fill="#BEC2D9"/>
<path d="M8.04232 56.2048C8.04232 58.4256 6.24199 60.226 4.02116 60.226C1.80033 60.226 0 58.4256 0 56.2048C0 53.9839 1.80033 52.1836 4.02116 52.1836C6.24199 52.1836 8.04232 53.9839 8.04232 56.2048Z" fill="#BEC2D9"/>
<path d="M8.04232 69.0134C8.04232 71.2342 6.24199 73.0345 4.02116 73.0345C1.80033 73.0345 0 71.2342 0 69.0134C0 66.7925 1.80033 64.9922 4.02116 64.9922C6.24199 64.9922 8.04232 66.7925 8.04232 69.0134Z" fill="#BEC2D9"/>
<path d="M20.8509 4.97235C20.8509 7.19319 19.0506 8.99353 16.8298 8.99353C14.6089 8.99353 12.8086 7.19319 12.8086 4.97235C12.8086 2.75152 14.6089 0.951172 16.8298 0.951172C19.0506 0.951172 20.8509 2.75152 20.8509 4.97235Z" fill="#BEC2D9"/>
<path d="M20.8509 17.7809C20.8509 20.0018 19.0506 21.8021 16.8298 21.8021C14.6089 21.8021 12.8086 20.0018 12.8086 17.7809C12.8086 15.5601 14.6089 13.7598 16.8298 13.7598C19.0506 13.7598 20.8509 15.5601 20.8509 17.7809Z" fill="#BEC2D9"/>
<path d="M20.8509 30.5886C20.8509 32.8094 19.0506 34.6097 16.8298 34.6097C14.6089 34.6097 12.8086 32.8094 12.8086 30.5886C12.8086 28.3677 14.6089 26.5674 16.8298 26.5674C19.0506 26.5674 20.8509 28.3677 20.8509 30.5886Z" fill="#BEC2D9"/>
<path d="M20.8509 43.3972C20.8509 45.618 19.0506 47.4183 16.8298 47.4183C14.6089 47.4183 12.8086 45.618 12.8086 43.3972C12.8086 41.1763 14.6089 39.376 16.8298 39.376C19.0506 39.376 20.8509 41.1763 20.8509 43.3972Z" fill="#BEC2D9"/>
<path d="M20.8509 56.2048C20.8509 58.4256 19.0506 60.226 16.8298 60.226C14.6089 60.226 12.8086 58.4256 12.8086 56.2048C12.8086 53.9839 14.6089 52.1836 16.8298 52.1836C19.0506 52.1836 20.8509 53.9839 20.8509 56.2048Z" fill="#BEC2D9"/>
<path d="M20.8509 69.0134C20.8509 71.2342 19.0506 73.0345 16.8298 73.0345C14.6089 73.0345 12.8086 71.2342 12.8086 69.0134C12.8086 66.7925 14.6089 64.9922 16.8298 64.9922C19.0506 64.9922 20.8509 66.7925 20.8509 69.0134Z" fill="#BEC2D9"/>
<path d="M33.6576 4.97235C33.6576 7.19319 31.8572 8.99353 29.6364 8.99353C27.4156 8.99353 25.6152 7.19319 25.6152 4.97235C25.6152 2.75152 27.4156 0.951172 29.6364 0.951172C31.8572 0.951172 33.6576 2.75152 33.6576 4.97235Z" fill="#BEC2D9"/>
<path d="M33.6576 17.7809C33.6576 20.0018 31.8572 21.8021 29.6364 21.8021C27.4156 21.8021 25.6152 20.0018 25.6152 17.7809C25.6152 15.5601 27.4156 13.7598 29.6364 13.7598C31.8572 13.7598 33.6576 15.5601 33.6576 17.7809Z" fill="#BEC2D9"/>
<path d="M33.6576 30.5886C33.6576 32.8094 31.8572 34.6097 29.6364 34.6097C27.4156 34.6097 25.6152 32.8094 25.6152 30.5886C25.6152 28.3677 27.4156 26.5674 29.6364 26.5674C31.8572 26.5674 33.6576 28.3677 33.6576 30.5886Z" fill="#BEC2D9"/>
<path d="M33.6576 43.3972C33.6576 45.618 31.8572 47.4183 29.6364 47.4183C27.4156 47.4183 25.6152 45.618 25.6152 43.3972C25.6152 41.1763 27.4156 39.376 29.6364 39.376C31.8572 39.376 33.6576 41.1763 33.6576 43.3972Z" fill="#BEC2D9"/>
<path d="M33.6576 56.2048C33.6576 58.4256 31.8572 60.226 29.6364 60.226C27.4156 60.226 25.6152 58.4256 25.6152 56.2048C25.6152 53.9839 27.4156 52.1836 29.6364 52.1836C31.8572 52.1836 33.6576 53.9839 33.6576 56.2048Z" fill="#BEC2D9"/>
<path d="M33.6576 69.0134C33.6576 71.2342 31.8572 73.0345 29.6364 73.0345C27.4156 73.0345 25.6152 71.2342 25.6152 69.0134C25.6152 66.7925 27.4156 64.9922 29.6364 64.9922C31.8572 64.9922 33.6576 66.7925 33.6576 69.0134Z" fill="#BEC2D9"/>
<path d="M46.4661 4.97235C46.4661 7.19319 44.6658 8.99353 42.445 8.99353C40.2242 8.99353 38.4238 7.19319 38.4238 4.97235C38.4238 2.75152 40.2242 0.951172 42.445 0.951172C44.6658 0.951172 46.4661 2.75152 46.4661 4.97235Z" fill="#BEC2D9"/>
<path d="M46.4661 17.7809C46.4661 20.0018 44.6658 21.8021 42.445 21.8021C40.2242 21.8021 38.4238 20.0018 38.4238 17.7809C38.4238 15.5601 40.2242 13.7598 42.445 13.7598C44.6658 13.7598 46.4661 15.5601 46.4661 17.7809Z" fill="#BEC2D9"/>
<path d="M46.4661 30.5886C46.4661 32.8094 44.6658 34.6097 42.445 34.6097C40.2242 34.6097 38.4238 32.8094 38.4238 30.5886C38.4238 28.3677 40.2242 26.5674 42.445 26.5674C44.6658 26.5674 46.4661 28.3677 46.4661 30.5886Z" fill="#BEC2D9"/>
<path d="M46.4661 43.3972C46.4661 45.618 44.6658 47.4183 42.445 47.4183C40.2242 47.4183 38.4238 45.618 38.4238 43.3972C38.4238 41.1763 40.2242 39.376 42.445 39.376C44.6658 39.376 46.4661 41.1763 46.4661 43.3972Z" fill="#BEC2D9"/>
<path d="M46.4661 56.2048C46.4661 58.4256 44.6658 60.226 42.445 60.226C40.2242 60.226 38.4238 58.4256 38.4238 56.2048C38.4238 53.9839 40.2242 52.1836 42.445 52.1836C44.6658 52.1836 46.4661 53.9839 46.4661 56.2048Z" fill="#BEC2D9"/>
<path d="M46.4661 69.0134C46.4661 71.2342 44.6658 73.0345 42.445 73.0345C40.2242 73.0345 38.4238 71.2342 38.4238 69.0134C38.4238 66.7925 40.2242 64.9922 42.445 64.9922C44.6658 64.9922 46.4661 66.7925 46.4661 69.0134Z" fill="#BEC2D9"/>
<path d="M59.2747 4.97235C59.2747 7.19319 57.4744 8.99353 55.2536 8.99353C53.0328 8.99353 51.2324 7.19319 51.2324 4.97235C51.2324 2.75152 53.0328 0.951172 55.2536 0.951172C57.4744 0.951172 59.2747 2.75152 59.2747 4.97235Z" fill="#BEC2D9"/>
<path d="M59.2747 17.7809C59.2747 20.0018 57.4744 21.8021 55.2536 21.8021C53.0328 21.8021 51.2324 20.0018 51.2324 17.7809C51.2324 15.5601 53.0328 13.7598 55.2536 13.7598C57.4744 13.7598 59.2747 15.5601 59.2747 17.7809Z" fill="#BEC2D9"/>
<path d="M59.2747 30.5886C59.2747 32.8094 57.4744 34.6097 55.2536 34.6097C53.0328 34.6097 51.2324 32.8094 51.2324 30.5886C51.2324 28.3677 53.0328 26.5674 55.2536 26.5674C57.4744 26.5674 59.2747 28.3677 59.2747 30.5886Z" fill="#BEC2D9"/>
<path d="M59.2747 43.3972C59.2747 45.618 57.4744 47.4183 55.2536 47.4183C53.0328 47.4183 51.2324 45.618 51.2324 43.3972C51.2324 41.1763 53.0328 39.376 55.2536 39.376C57.4744 39.376 59.2747 41.1763 59.2747 43.3972Z" fill="#BEC2D9"/>
<path d="M59.2747 56.2048C59.2747 58.4256 57.4744 60.226 55.2536 60.226C53.0328 60.226 51.2324 58.4256 51.2324 56.2048C51.2324 53.9839 53.0328 52.1836 55.2536 52.1836C57.4744 52.1836 59.2747 53.9839 59.2747 56.2048Z" fill="#BEC2D9"/>
<path d="M59.2747 69.0134C59.2747 71.2342 57.4744 73.0345 55.2536 73.0345C53.0328 73.0345 51.2324 71.2342 51.2324 69.0134C51.2324 66.7925 53.0328 64.9922 55.2536 64.9922C57.4744 64.9922 59.2747 66.7925 59.2747 69.0134Z" fill="#BEC2D9"/>
<path d="M72.0853 4.97235C72.0853 7.19319 70.285 8.99353 68.0641 8.99353C65.8433 8.99353 64.043 7.19319 64.043 4.97235C64.043 2.75152 65.8433 0.951172 68.0641 0.951172C70.285 0.951172 72.0853 2.75152 72.0853 4.97235Z" fill="#BEC2D9"/>
<path d="M72.0853 17.7809C72.0853 20.0018 70.285 21.8021 68.0641 21.8021C65.8433 21.8021 64.043 20.0018 64.043 17.7809C64.043 15.5601 65.8433 13.7598 68.0641 13.7598C70.285 13.7598 72.0853 15.5601 72.0853 17.7809Z" fill="#BEC2D9"/>
<path d="M72.0853 30.5886C72.0853 32.8094 70.285 34.6097 68.0641 34.6097C65.8433 34.6097 64.043 32.8094 64.043 30.5886C64.043 28.3677 65.8433 26.5674 68.0641 26.5674C70.285 26.5674 72.0853 28.3677 72.0853 30.5886Z" fill="#BEC2D9"/>
<path d="M72.0853 43.3972C72.0853 45.618 70.285 47.4183 68.0641 47.4183C65.8433 47.4183 64.043 45.618 64.043 43.3972C64.043 41.1763 65.8433 39.376 68.0641 39.376C70.285 39.376 72.0853 41.1763 72.0853 43.3972Z" fill="#BEC2D9"/>
<path d="M72.0853 56.2048C72.0853 58.4256 70.285 60.226 68.0641 60.226C65.8433 60.226 64.043 58.4256 64.043 56.2048C64.043 53.9839 65.8433 52.1836 68.0641 52.1836C70.285 52.1836 72.0853 53.9839 72.0853 56.2048Z" fill="#BEC2D9"/>
<path d="M72.0853 69.0134C72.0853 71.2342 70.285 73.0345 68.0641 73.0345C65.8433 73.0345 64.043 71.2342 64.043 69.0134C64.043 66.7925 65.8433 64.9922 68.0641 64.9922C70.285 64.9922 72.0853 66.7925 72.0853 69.0134Z" fill="#BEC2D9"/>
<path d="M8.04232 82.1012C8.04232 84.3221 6.24199 86.1224 4.02116 86.1224C1.80033 86.1224 0 84.3221 0 82.1012C0 79.8804 1.80033 78.0801 4.02116 78.0801C6.24199 78.0801 8.04232 79.8804 8.04232 82.1012Z" fill="#BEC2D9"/>
<path d="M8.04232 94.9098C8.04232 97.1307 6.24199 98.931 4.02116 98.931C1.80033 98.931 0 97.1307 0 94.9098C0 92.689 1.80033 90.8886 4.02116 90.8886C6.24199 90.8886 8.04232 92.689 8.04232 94.9098Z" fill="#BEC2D9"/>
<path d="M8.04232 107.717C8.04232 109.938 6.24199 111.739 4.02116 111.739C1.80033 111.739 0 109.938 0 107.717C0 105.497 1.80033 103.696 4.02116 103.696C6.24199 103.696 8.04232 105.497 8.04232 107.717Z" fill="#BEC2D9"/>
<path d="M8.04232 120.526C8.04232 122.747 6.24199 124.547 4.02116 124.547C1.80033 124.547 0 122.747 0 120.526C0 118.305 1.80033 116.505 4.02116 116.505C6.24199 116.505 8.04232 118.305 8.04232 120.526Z" fill="#BEC2D9"/>
<path d="M8.04232 133.334C8.04232 135.555 6.24199 137.355 4.02116 137.355C1.80033 137.355 0 135.555 0 133.334C0 131.113 1.80033 129.313 4.02116 129.313C6.24199 129.313 8.04232 131.113 8.04232 133.334Z" fill="#BEC2D9"/>
<path d="M8.04232 146.142C8.04232 148.363 6.24199 150.163 4.02116 150.163C1.80033 150.163 0 148.363 0 146.142C0 143.921 1.80033 142.121 4.02116 142.121C6.24199 142.121 8.04232 143.921 8.04232 146.142Z" fill="#BEC2D9"/>
<path d="M20.8509 82.1012C20.8509 84.3221 19.0506 86.1224 16.8298 86.1224C14.6089 86.1224 12.8086 84.3221 12.8086 82.1012C12.8086 79.8804 14.6089 78.0801 16.8298 78.0801C19.0506 78.0801 20.8509 79.8804 20.8509 82.1012Z" fill="#BEC2D9"/>
<path d="M20.8509 94.9098C20.8509 97.1307 19.0506 98.931 16.8298 98.931C14.6089 98.931 12.8086 97.1307 12.8086 94.9098C12.8086 92.689 14.6089 90.8886 16.8298 90.8886C19.0506 90.8886 20.8509 92.689 20.8509 94.9098Z" fill="#BEC2D9"/>
<path d="M20.8509 107.717C20.8509 109.938 19.0506 111.739 16.8298 111.739C14.6089 111.739 12.8086 109.938 12.8086 107.717C12.8086 105.497 14.6089 103.696 16.8298 103.696C19.0506 103.696 20.8509 105.497 20.8509 107.717Z" fill="#BEC2D9"/>
<path d="M20.8509 120.526C20.8509 122.747 19.0506 124.547 16.8298 124.547C14.6089 124.547 12.8086 122.747 12.8086 120.526C12.8086 118.305 14.6089 116.505 16.8298 116.505C19.0506 116.505 20.8509 118.305 20.8509 120.526Z" fill="#BEC2D9"/>
<path d="M20.8509 133.334C20.8509 135.555 19.0506 137.355 16.8298 137.355C14.6089 137.355 12.8086 135.555 12.8086 133.334C12.8086 131.113 14.6089 129.312 16.8298 129.312C19.0506 129.312 20.8509 131.113 20.8509 133.334Z" fill="#BEC2D9"/>
<path d="M20.8509 146.142C20.8509 148.363 19.0506 150.163 16.8298 150.163C14.6089 150.163 12.8086 148.363 12.8086 146.142C12.8086 143.921 14.6089 142.121 16.8298 142.121C19.0506 142.121 20.8509 143.921 20.8509 146.142Z" fill="#BEC2D9"/>
<path d="M33.6576 82.1012C33.6576 84.3221 31.8572 86.1224 29.6364 86.1224C27.4156 86.1224 25.6152 84.3221 25.6152 82.1012C25.6152 79.8804 27.4156 78.0801 29.6364 78.0801C31.8572 78.0801 33.6576 79.8804 33.6576 82.1012Z" fill="#BEC2D9"/>
<path d="M33.6576 94.9098C33.6576 97.1307 31.8572 98.931 29.6364 98.931C27.4156 98.931 25.6152 97.1307 25.6152 94.9098C25.6152 92.689 27.4156 90.8886 29.6364 90.8886C31.8572 90.8886 33.6576 92.689 33.6576 94.9098Z" fill="#BEC2D9"/>
<path d="M33.6576 107.717C33.6576 109.938 31.8572 111.739 29.6364 111.739C27.4156 111.739 25.6152 109.938 25.6152 107.717C25.6152 105.497 27.4156 103.696 29.6364 103.696C31.8572 103.696 33.6576 105.497 33.6576 107.717Z" fill="#BEC2D9"/>
<path d="M33.6576 120.526C33.6576 122.747 31.8572 124.547 29.6364 124.547C27.4156 124.547 25.6152 122.747 25.6152 120.526C25.6152 118.305 27.4156 116.505 29.6364 116.505C31.8572 116.505 33.6576 118.305 33.6576 120.526Z" fill="#BEC2D9"/>
<path d="M33.6576 133.334C33.6576 135.555 31.8572 137.355 29.6364 137.355C27.4156 137.355 25.6152 135.555 25.6152 133.334C25.6152 131.113 27.4156 129.312 29.6364 129.312C31.8572 129.312 33.6576 131.113 33.6576 133.334Z" fill="#BEC2D9"/>
<path d="M33.6576 146.142C33.6576 148.363 31.8572 150.163 29.6364 150.163C27.4156 150.163 25.6152 148.363 25.6152 146.142C25.6152 143.921 27.4156 142.121 29.6364 142.121C31.8572 142.121 33.6576 143.921 33.6576 146.142Z" fill="#BEC2D9"/>
<path d="M46.4661 82.1012C46.4661 84.3221 44.6658 86.1224 42.445 86.1224C40.2242 86.1224 38.4238 84.3221 38.4238 82.1012C38.4238 79.8804 40.2242 78.0801 42.445 78.0801C44.6658 78.0801 46.4661 79.8804 46.4661 82.1012Z" fill="#BEC2D9"/>
<path d="M46.4661 94.9098C46.4661 97.1307 44.6658 98.931 42.445 98.931C40.2242 98.931 38.4238 97.1307 38.4238 94.9098C38.4238 92.689 40.2242 90.8886 42.445 90.8886C44.6658 90.8886 46.4661 92.689 46.4661 94.9098Z" fill="#BEC2D9"/>
<path d="M46.4661 107.717C46.4661 109.938 44.6658 111.739 42.445 111.739C40.2242 111.739 38.4238 109.938 38.4238 107.717C38.4238 105.497 40.2242 103.696 42.445 103.696C44.6658 103.696 46.4661 105.497 46.4661 107.717Z" fill="#BEC2D9"/>
<path d="M46.4661 120.526C46.4661 122.747 44.6658 124.547 42.445 124.547C40.2242 124.547 38.4238 122.747 38.4238 120.526C38.4238 118.305 40.2242 116.505 42.445 116.505C44.6658 116.505 46.4661 118.305 46.4661 120.526Z" fill="#BEC2D9"/>
<path d="M46.4661 133.334C46.4661 135.555 44.6658 137.355 42.445 137.355C40.2242 137.355 38.4238 135.555 38.4238 133.334C38.4238 131.113 40.2242 129.312 42.445 129.312C44.6658 129.312 46.4661 131.113 46.4661 133.334Z" fill="#BEC2D9"/>
<path d="M46.4661 146.142C46.4661 148.363 44.6658 150.163 42.445 150.163C40.2242 150.163 38.4238 148.363 38.4238 146.142C38.4238 143.921 40.2242 142.121 42.445 142.121C44.6658 142.121 46.4661 143.921 46.4661 146.142Z" fill="#BEC2D9"/>
<path d="M59.2747 82.1012C59.2747 84.3221 57.4744 86.1224 55.2536 86.1224C53.0328 86.1224 51.2324 84.3221 51.2324 82.1012C51.2324 79.8804 53.0328 78.0801 55.2536 78.0801C57.4744 78.0801 59.2747 79.8804 59.2747 82.1012Z" fill="#BEC2D9"/>
<path d="M59.2747 94.9098C59.2747 97.1307 57.4744 98.931 55.2536 98.931C53.0328 98.931 51.2324 97.1307 51.2324 94.9098C51.2324 92.689 53.0328 90.8886 55.2536 90.8886C57.4744 90.8886 59.2747 92.689 59.2747 94.9098Z" fill="#BEC2D9"/>
<path d="M59.2747 107.717C59.2747 109.938 57.4744 111.739 55.2536 111.739C53.0328 111.739 51.2324 109.938 51.2324 107.717C51.2324 105.497 53.0328 103.696 55.2536 103.696C57.4744 103.696 59.2747 105.497 59.2747 107.717Z" fill="#BEC2D9"/>
<path d="M59.2747 120.526C59.2747 122.747 57.4744 124.547 55.2536 124.547C53.0328 124.547 51.2324 122.747 51.2324 120.526C51.2324 118.305 53.0328 116.505 55.2536 116.505C57.4744 116.505 59.2747 118.305 59.2747 120.526Z" fill="#BEC2D9"/>
<path d="M59.2747 133.334C59.2747 135.555 57.4744 137.355 55.2536 137.355C53.0328 137.355 51.2324 135.555 51.2324 133.334C51.2324 131.113 53.0328 129.312 55.2536 129.312C57.4744 129.312 59.2747 131.113 59.2747 133.334Z" fill="#BEC2D9"/>
<path d="M59.2747 146.142C59.2747 148.363 57.4744 150.163 55.2536 150.163C53.0328 150.163 51.2324 148.363 51.2324 146.142C51.2324 143.921 53.0328 142.121 55.2536 142.121C57.4744 142.121 59.2747 143.921 59.2747 146.142Z" fill="#BEC2D9"/>
<path d="M72.0853 82.1012C72.0853 84.3221 70.285 86.1224 68.0641 86.1224C65.8433 86.1224 64.043 84.3221 64.043 82.1012C64.043 79.8804 65.8433 78.0801 68.0641 78.0801C70.285 78.0801 72.0853 79.8804 72.0853 82.1012Z" fill="#BEC2D9"/>
<path d="M72.0853 94.9098C72.0853 97.1307 70.285 98.931 68.0641 98.931C65.8433 98.931 64.043 97.1307 64.043 94.9098C64.043 92.689 65.8433 90.8886 68.0641 90.8886C70.285 90.8886 72.0853 92.689 72.0853 94.9098Z" fill="#BEC2D9"/>
<path d="M72.0853 107.717C72.0853 109.938 70.285 111.739 68.0641 111.739C65.8433 111.739 64.043 109.938 64.043 107.717C64.043 105.497 65.8433 103.696 68.0641 103.696C70.285 103.696 72.0853 105.497 72.0853 107.717Z" fill="#BEC2D9"/>
<path d="M72.0853 120.526C72.0853 122.747 70.285 124.547 68.0641 124.547C65.8433 124.547 64.043 122.747 64.043 120.526C64.043 118.305 65.8433 116.505 68.0641 116.505C70.285 116.505 72.0853 118.305 72.0853 120.526Z" fill="#BEC2D9"/>
<path d="M72.0853 133.334C72.0853 135.555 70.285 137.355 68.0641 137.355C65.8433 137.355 64.043 135.555 64.043 133.334C64.043 131.113 65.8433 129.312 68.0641 129.312C70.285 129.312 72.0853 131.113 72.0853 133.334Z" fill="#BEC2D9"/>
<path d="M72.0853 146.142C72.0853 148.363 70.285 150.163 68.0641 150.163C65.8433 150.163 64.043 148.363 64.043 146.142C64.043 143.921 65.8433 142.121 68.0641 142.121C70.285 142.121 72.0853 143.921 72.0853 146.142Z" fill="#BEC2D9"/>
<path d="M85.1712 4.97235C85.1712 7.19319 83.3709 8.99353 81.1501 8.99353C78.9292 8.99353 77.1289 7.19319 77.1289 4.97235C77.1289 2.75152 78.9292 0.951172 81.1501 0.951172C83.3709 0.951172 85.1712 2.75152 85.1712 4.97235Z" fill="#BEC2D9"/>
<path d="M85.1712 17.7809C85.1712 20.0018 83.3709 21.8021 81.1501 21.8021C78.9292 21.8021 77.1289 20.0018 77.1289 17.7809C77.1289 15.5601 78.9292 13.7598 81.1501 13.7598C83.3709 13.7598 85.1712 15.5601 85.1712 17.7809Z" fill="#BEC2D9"/>
<path d="M85.1712 30.5886C85.1712 32.8094 83.3709 34.6097 81.1501 34.6097C78.9292 34.6097 77.1289 32.8094 77.1289 30.5886C77.1289 28.3677 78.9292 26.5674 81.1501 26.5674C83.3709 26.5674 85.1712 28.3677 85.1712 30.5886Z" fill="#BEC2D9"/>
<path d="M85.1712 43.3972C85.1712 45.618 83.3709 47.4183 81.1501 47.4183C78.9292 47.4183 77.1289 45.618 77.1289 43.3972C77.1289 41.1763 78.9292 39.376 81.1501 39.376C83.3709 39.376 85.1712 41.1763 85.1712 43.3972Z" fill="#BEC2D9"/>
<path d="M85.1712 56.2048C85.1712 58.4256 83.3709 60.226 81.1501 60.226C78.9292 60.226 77.1289 58.4256 77.1289 56.2048C77.1289 53.9839 78.9292 52.1836 81.1501 52.1836C83.3709 52.1836 85.1712 53.9839 85.1712 56.2048Z" fill="#BEC2D9"/>
<path d="M85.1712 69.0134C85.1712 71.2342 83.3709 73.0345 81.1501 73.0345C78.9292 73.0345 77.1289 71.2342 77.1289 69.0134C77.1289 66.7925 78.9292 64.9922 81.1501 64.9922C83.3709 64.9922 85.1712 66.7925 85.1712 69.0134Z" fill="#BEC2D9"/>
<path d="M97.9798 4.97235C97.9798 7.19319 96.1795 8.99353 93.9587 8.99353C91.7378 8.99353 89.9375 7.19319 89.9375 4.97235C89.9375 2.75152 91.7378 0.951172 93.9587 0.951172C96.1795 0.951172 97.9798 2.75152 97.9798 4.97235Z" fill="#BEC2D9"/>
<path d="M97.9798 17.7809C97.9798 20.0018 96.1795 21.8021 93.9587 21.8021C91.7378 21.8021 89.9375 20.0018 89.9375 17.7809C89.9375 15.5601 91.7378 13.7598 93.9587 13.7598C96.1795 13.7598 97.9798 15.5601 97.9798 17.7809Z" fill="#BEC2D9"/>
<path d="M97.9798 30.5886C97.9798 32.8094 96.1795 34.6097 93.9587 34.6097C91.7378 34.6097 89.9375 32.8094 89.9375 30.5886C89.9375 28.3677 91.7378 26.5674 93.9587 26.5674C96.1795 26.5674 97.9798 28.3677 97.9798 30.5886Z" fill="#BEC2D9"/>
<path d="M97.9798 43.3972C97.9798 45.618 96.1795 47.4183 93.9587 47.4183C91.7378 47.4183 89.9375 45.618 89.9375 43.3972C89.9375 41.1763 91.7378 39.376 93.9587 39.376C96.1795 39.376 97.9798 41.1763 97.9798 43.3972Z" fill="#BEC2D9"/>
<path d="M97.9798 56.2048C97.9798 58.4256 96.1795 60.226 93.9587 60.226C91.7378 60.226 89.9375 58.4256 89.9375 56.2048C89.9375 53.9839 91.7378 52.1836 93.9587 52.1836C96.1795 52.1836 97.9798 53.9839 97.9798 56.2048Z" fill="#BEC2D9"/>
<path d="M97.9798 69.0134C97.9798 71.2342 96.1795 73.0345 93.9587 73.0345C91.7378 73.0345 89.9375 71.2342 89.9375 69.0134C89.9375 66.7925 91.7378 64.9922 93.9587 64.9922C96.1795 64.9922 97.9798 66.7925 97.9798 69.0134Z" fill="#BEC2D9"/>
<path d="M110.786 4.97235C110.786 7.19319 108.986 8.99353 106.765 8.99353C104.544 8.99353 102.744 7.19319 102.744 4.97235C102.744 2.75152 104.544 0.951172 106.765 0.951172C108.986 0.951172 110.786 2.75152 110.786 4.97235Z" fill="#BEC2D9"/>
<path d="M110.786 17.7809C110.786 20.0018 108.986 21.8021 106.765 21.8021C104.544 21.8021 102.744 20.0018 102.744 17.7809C102.744 15.5601 104.544 13.7598 106.765 13.7598C108.986 13.7598 110.786 15.5601 110.786 17.7809Z" fill="#BEC2D9"/>
<path d="M110.786 30.5886C110.786 32.8094 108.986 34.6097 106.765 34.6097C104.544 34.6097 102.744 32.8094 102.744 30.5886C102.744 28.3677 104.544 26.5674 106.765 26.5674C108.986 26.5674 110.786 28.3677 110.786 30.5886Z" fill="#BEC2D9"/>
<path d="M110.786 43.3972C110.786 45.618 108.986 47.4183 106.765 47.4183C104.544 47.4183 102.744 45.618 102.744 43.3972C102.744 41.1763 104.544 39.376 106.765 39.376C108.986 39.376 110.786 41.1763 110.786 43.3972Z" fill="#BEC2D9"/>
<path d="M110.786 56.2048C110.786 58.4256 108.986 60.226 106.765 60.226C104.544 60.226 102.744 58.4256 102.744 56.2048C102.744 53.9839 104.544 52.1836 106.765 52.1836C108.986 52.1836 110.786 53.9839 110.786 56.2048Z" fill="#BEC2D9"/>
<path d="M110.786 69.0134C110.786 71.2342 108.986 73.0345 106.765 73.0345C104.544 73.0345 102.744 71.2342 102.744 69.0134C102.744 66.7925 104.544 64.9922 106.765 64.9922C108.986 64.9922 110.786 66.7925 110.786 69.0134Z" fill="#BEC2D9"/>
<path d="M123.595 4.97235C123.595 7.19319 121.795 8.99353 119.574 8.99353C117.353 8.99353 115.553 7.19319 115.553 4.97235C115.553 2.75152 117.353 0.951172 119.574 0.951172C121.795 0.951172 123.595 2.75152 123.595 4.97235Z" fill="#BEC2D9"/>
<path d="M123.595 17.7809C123.595 20.0018 121.795 21.8021 119.574 21.8021C117.353 21.8021 115.553 20.0018 115.553 17.7809C115.553 15.5601 117.353 13.7598 119.574 13.7598C121.795 13.7598 123.595 15.5601 123.595 17.7809Z" fill="#BEC2D9"/>
<path d="M123.595 30.5886C123.595 32.8094 121.795 34.6097 119.574 34.6097C117.353 34.6097 115.553 32.8094 115.553 30.5886C115.553 28.3677 117.353 26.5674 119.574 26.5674C121.795 26.5674 123.595 28.3677 123.595 30.5886Z" fill="#BEC2D9"/>
<path d="M123.595 43.3972C123.595 45.618 121.795 47.4183 119.574 47.4183C117.353 47.4183 115.553 45.618 115.553 43.3972C115.553 41.1763 117.353 39.376 119.574 39.376C121.795 39.376 123.595 41.1763 123.595 43.3972Z" fill="#BEC2D9"/>
<path d="M123.595 56.2048C123.595 58.4256 121.795 60.226 119.574 60.226C117.353 60.226 115.553 58.4256 115.553 56.2048C115.553 53.9839 117.353 52.1836 119.574 52.1836C121.795 52.1836 123.595 53.9839 123.595 56.2048Z" fill="#BEC2D9"/>
<path d="M123.595 69.0134C123.595 71.2342 121.795 73.0345 119.574 73.0345C117.353 73.0345 115.553 71.2342 115.553 69.0134C115.553 66.7925 117.353 64.9922 119.574 64.9922C121.795 64.9922 123.595 66.7925 123.595 69.0134Z" fill="#BEC2D9"/>
<path d="M136.404 4.97235C136.404 7.19319 134.603 8.99353 132.382 8.99353C130.162 8.99353 128.361 7.19319 128.361 4.97235C128.361 2.75152 130.162 0.951172 132.382 0.951172C134.603 0.951172 136.404 2.75152 136.404 4.97235Z" fill="#BEC2D9"/>
<path d="M136.404 17.7809C136.404 20.0018 134.603 21.8021 132.382 21.8021C130.162 21.8021 128.361 20.0018 128.361 17.7809C128.361 15.5601 130.162 13.7598 132.382 13.7598C134.603 13.7598 136.404 15.5601 136.404 17.7809Z" fill="#BEC2D9"/>
<path d="M136.404 30.5886C136.404 32.8094 134.603 34.6097 132.382 34.6097C130.162 34.6097 128.361 32.8094 128.361 30.5886C128.361 28.3677 130.162 26.5674 132.382 26.5674C134.603 26.5674 136.404 28.3677 136.404 30.5886Z" fill="#BEC2D9"/>
<path d="M136.404 43.3972C136.404 45.618 134.603 47.4183 132.382 47.4183C130.162 47.4183 128.361 45.618 128.361 43.3972C128.361 41.1763 130.162 39.376 132.382 39.376C134.603 39.376 136.404 41.1763 136.404 43.3972Z" fill="#BEC2D9"/>
<path d="M136.404 56.2048C136.404 58.4256 134.603 60.226 132.382 60.226C130.162 60.226 128.361 58.4256 128.361 56.2048C128.361 53.9839 130.162 52.1836 132.382 52.1836C134.603 52.1836 136.404 53.9839 136.404 56.2048Z" fill="#BEC2D9"/>
<path d="M136.404 69.0134C136.404 71.2342 134.603 73.0345 132.382 73.0345C130.162 73.0345 128.361 71.2342 128.361 69.0134C128.361 66.7925 130.162 64.9922 132.382 64.9922C134.603 64.9922 136.404 66.7925 136.404 69.0134Z" fill="#BEC2D9"/>
<path d="M149.214 4.97235C149.214 7.19319 147.414 8.99353 145.193 8.99353C142.972 8.99353 141.172 7.19319 141.172 4.97235C141.172 2.75152 142.972 0.951172 145.193 0.951172C147.414 0.951172 149.214 2.75152 149.214 4.97235Z" fill="#BEC2D9"/>
<path d="M149.214 17.7809C149.214 20.0018 147.414 21.8021 145.193 21.8021C142.972 21.8021 141.172 20.0018 141.172 17.7809C141.172 15.5601 142.972 13.7598 145.193 13.7598C147.414 13.7598 149.214 15.5601 149.214 17.7809Z" fill="#BEC2D9"/>
<path d="M149.214 30.5886C149.214 32.8094 147.414 34.6097 145.193 34.6097C142.972 34.6097 141.172 32.8094 141.172 30.5886C141.172 28.3677 142.972 26.5674 145.193 26.5674C147.414 26.5674 149.214 28.3677 149.214 30.5886Z" fill="#BEC2D9"/>
<path d="M149.214 43.3972C149.214 45.618 147.414 47.4183 145.193 47.4183C142.972 47.4183 141.172 45.618 141.172 43.3972C141.172 41.1763 142.972 39.376 145.193 39.376C147.414 39.376 149.214 41.1763 149.214 43.3972Z" fill="#BEC2D9"/>
<path d="M149.214 56.2048C149.214 58.4256 147.414 60.226 145.193 60.226C142.972 60.226 141.172 58.4256 141.172 56.2048C141.172 53.9839 142.972 52.1836 145.193 52.1836C147.414 52.1836 149.214 53.9839 149.214 56.2048Z" fill="#BEC2D9"/>
<path d="M149.214 69.0134C149.214 71.2342 147.414 73.0345 145.193 73.0345C142.972 73.0345 141.172 71.2342 141.172 69.0134C141.172 66.7925 142.972 64.9922 145.193 64.9922C147.414 64.9922 149.214 66.7925 149.214 69.0134Z" fill="#BEC2D9"/>
<path d="M85.1712 82.1013C85.1712 84.3221 83.3709 86.1224 81.1501 86.1224C78.9292 86.1224 77.1289 84.3221 77.1289 82.1013C77.1289 79.8804 78.9292 78.0801 81.1501 78.0801C83.3709 78.0801 85.1712 79.8804 85.1712 82.1013Z" fill="#BEC2D9"/>
<path d="M85.1712 94.9099C85.1712 97.1307 83.3709 98.931 81.1501 98.931C78.9292 98.931 77.1289 97.1307 77.1289 94.9099C77.1289 92.689 78.9292 90.8887 81.1501 90.8887C83.3709 90.8887 85.1712 92.689 85.1712 94.9099Z" fill="#BEC2D9"/>
<path d="M85.1712 107.717C85.1712 109.938 83.3709 111.739 81.1501 111.739C78.9292 111.739 77.1289 109.938 77.1289 107.717C77.1289 105.497 78.9292 103.696 81.1501 103.696C83.3709 103.696 85.1712 105.497 85.1712 107.717Z" fill="#BEC2D9"/>
<path d="M85.1712 120.526C85.1712 122.747 83.3709 124.547 81.1501 124.547C78.9292 124.547 77.1289 122.747 77.1289 120.526C77.1289 118.305 78.9292 116.505 81.1501 116.505C83.3709 116.505 85.1712 118.305 85.1712 120.526Z" fill="#BEC2D9"/>
<path d="M85.1712 133.334C85.1712 135.555 83.3709 137.355 81.1501 137.355C78.9292 137.355 77.1289 135.555 77.1289 133.334C77.1289 131.113 78.9292 129.313 81.1501 129.313C83.3709 129.313 85.1712 131.113 85.1712 133.334Z" fill="#BEC2D9"/>
<path d="M85.1712 146.142C85.1712 148.363 83.3709 150.163 81.1501 150.163C78.9292 150.163 77.1289 148.363 77.1289 146.142C77.1289 143.921 78.9292 142.121 81.1501 142.121C83.3709 142.121 85.1712 143.921 85.1712 146.142Z" fill="#BEC2D9"/>
<path d="M97.9798 82.1013C97.9798 84.3221 96.1795 86.1224 93.9587 86.1224C91.7378 86.1224 89.9375 84.3221 89.9375 82.1013C89.9375 79.8804 91.7378 78.0801 93.9587 78.0801C96.1795 78.0801 97.9798 79.8804 97.9798 82.1013Z" fill="#BEC2D9"/>
<path d="M97.9798 94.9099C97.9798 97.1307 96.1795 98.931 93.9587 98.931C91.7378 98.931 89.9375 97.1307 89.9375 94.9099C89.9375 92.689 91.7378 90.8887 93.9587 90.8887C96.1795 90.8887 97.9798 92.689 97.9798 94.9099Z" fill="#BEC2D9"/>
<path d="M97.9798 107.717C97.9798 109.938 96.1795 111.739 93.9587 111.739C91.7378 111.739 89.9375 109.938 89.9375 107.717C89.9375 105.497 91.7378 103.696 93.9587 103.696C96.1795 103.696 97.9798 105.497 97.9798 107.717Z" fill="#BEC2D9"/>
<path d="M97.9798 120.526C97.9798 122.747 96.1795 124.547 93.9587 124.547C91.7378 124.547 89.9375 122.747 89.9375 120.526C89.9375 118.305 91.7378 116.505 93.9587 116.505C96.1795 116.505 97.9798 118.305 97.9798 120.526Z" fill="#BEC2D9"/>
<path d="M97.9798 133.334C97.9798 135.555 96.1795 137.355 93.9587 137.355C91.7378 137.355 89.9375 135.555 89.9375 133.334C89.9375 131.113 91.7378 129.312 93.9587 129.312C96.1795 129.312 97.9798 131.113 97.9798 133.334Z" fill="#BEC2D9"/>
<path d="M97.9798 146.142C97.9798 148.363 96.1795 150.163 93.9587 150.163C91.7378 150.163 89.9375 148.363 89.9375 146.142C89.9375 143.921 91.7378 142.121 93.9587 142.121C96.1795 142.121 97.9798 143.921 97.9798 146.142Z" fill="#BEC2D9"/>
<path d="M110.786 82.1013C110.786 84.3221 108.986 86.1224 106.765 86.1224C104.544 86.1224 102.744 84.3221 102.744 82.1013C102.744 79.8804 104.544 78.0801 106.765 78.0801C108.986 78.0801 110.786 79.8804 110.786 82.1013Z" fill="#BEC2D9"/>
<path d="M110.786 94.9099C110.786 97.1307 108.986 98.931 106.765 98.931C104.544 98.931 102.744 97.1307 102.744 94.9099C102.744 92.689 104.544 90.8887 106.765 90.8887C108.986 90.8887 110.786 92.689 110.786 94.9099Z" fill="#BEC2D9"/>
<path d="M110.786 107.717C110.786 109.938 108.986 111.739 106.765 111.739C104.544 111.739 102.744 109.938 102.744 107.717C102.744 105.497 104.544 103.696 106.765 103.696C108.986 103.696 110.786 105.497 110.786 107.717Z" fill="#BEC2D9"/>
<path d="M110.786 120.526C110.786 122.747 108.986 124.547 106.765 124.547C104.544 124.547 102.744 122.747 102.744 120.526C102.744 118.305 104.544 116.505 106.765 116.505C108.986 116.505 110.786 118.305 110.786 120.526Z" fill="#BEC2D9"/>
<path d="M110.786 133.334C110.786 135.555 108.986 137.355 106.765 137.355C104.544 137.355 102.744 135.555 102.744 133.334C102.744 131.113 104.544 129.312 106.765 129.312C108.986 129.312 110.786 131.113 110.786 133.334Z" fill="#BEC2D9"/>
<path d="M110.786 146.142C110.786 148.363 108.986 150.163 106.765 150.163C104.544 150.163 102.744 148.363 102.744 146.142C102.744 143.921 104.544 142.121 106.765 142.121C108.986 142.121 110.786 143.921 110.786 146.142Z" fill="#BEC2D9"/>
<path d="M123.595 82.1013C123.595 84.3221 121.795 86.1224 119.574 86.1224C117.353 86.1224 115.553 84.3221 115.553 82.1013C115.553 79.8804 117.353 78.0801 119.574 78.0801C121.795 78.0801 123.595 79.8804 123.595 82.1013Z" fill="#BEC2D9"/>
<path d="M123.595 94.9099C123.595 97.1307 121.795 98.931 119.574 98.931C117.353 98.931 115.553 97.1307 115.553 94.9099C115.553 92.689 117.353 90.8887 119.574 90.8887C121.795 90.8887 123.595 92.689 123.595 94.9099Z" fill="#BEC2D9"/>
<path d="M123.595 107.717C123.595 109.938 121.795 111.739 119.574 111.739C117.353 111.739 115.553 109.938 115.553 107.717C115.553 105.497 117.353 103.696 119.574 103.696C121.795 103.696 123.595 105.497 123.595 107.717Z" fill="#BEC2D9"/>
<path d="M123.595 120.526C123.595 122.747 121.795 124.547 119.574 124.547C117.353 124.547 115.553 122.747 115.553 120.526C115.553 118.305 117.353 116.505 119.574 116.505C121.795 116.505 123.595 118.305 123.595 120.526Z" fill="#BEC2D9"/>
<path d="M123.595 133.334C123.595 135.555 121.795 137.355 119.574 137.355C117.353 137.355 115.553 135.555 115.553 133.334C115.553 131.113 117.353 129.312 119.574 129.312C121.795 129.312 123.595 131.113 123.595 133.334Z" fill="#BEC2D9"/>
<path d="M123.595 146.142C123.595 148.363 121.795 150.163 119.574 150.163C117.353 150.163 115.553 148.363 115.553 146.142C115.553 143.921 117.353 142.121 119.574 142.121C121.795 142.121 123.595 143.921 123.595 146.142Z" fill="#BEC2D9"/>
<path d="M136.404 82.1013C136.404 84.3221 134.603 86.1224 132.382 86.1224C130.162 86.1224 128.361 84.3221 128.361 82.1013C128.361 79.8804 130.162 78.0801 132.382 78.0801C134.603 78.0801 136.404 79.8804 136.404 82.1013Z" fill="#BEC2D9"/>
<path d="M136.404 94.9099C136.404 97.1307 134.603 98.931 132.382 98.931C130.162 98.931 128.361 97.1307 128.361 94.9099C128.361 92.689 130.162 90.8887 132.382 90.8887C134.603 90.8887 136.404 92.689 136.404 94.9099Z" fill="#BEC2D9"/>
<path d="M136.404 107.717C136.404 109.938 134.603 111.739 132.382 111.739C130.162 111.739 128.361 109.938 128.361 107.717C128.361 105.497 130.162 103.696 132.382 103.696C134.603 103.696 136.404 105.497 136.404 107.717Z" fill="#BEC2D9"/>
<path d="M136.404 120.526C136.404 122.747 134.603 124.547 132.382 124.547C130.162 124.547 128.361 122.747 128.361 120.526C128.361 118.305 130.162 116.505 132.382 116.505C134.603 116.505 136.404 118.305 136.404 120.526Z" fill="#BEC2D9"/>
<path d="M136.404 133.334C136.404 135.555 134.603 137.355 132.382 137.355C130.162 137.355 128.361 135.555 128.361 133.334C128.361 131.113 130.162 129.312 132.382 129.312C134.603 129.312 136.404 131.113 136.404 133.334Z" fill="#BEC2D9"/>
<path d="M136.404 146.142C136.404 148.363 134.603 150.163 132.382 150.163C130.162 150.163 128.361 148.363 128.361 146.142C128.361 143.921 130.162 142.121 132.382 142.121C134.603 142.121 136.404 143.921 136.404 146.142Z" fill="#BEC2D9"/>
<path d="M149.214 82.1013C149.214 84.3221 147.414 86.1224 145.193 86.1224C142.972 86.1224 141.172 84.3221 141.172 82.1013C141.172 79.8804 142.972 78.0801 145.193 78.0801C147.414 78.0801 149.214 79.8804 149.214 82.1013Z" fill="#BEC2D9"/>
<path d="M149.214 94.9099C149.214 97.1307 147.414 98.931 145.193 98.931C142.972 98.931 141.172 97.1307 141.172 94.9099C141.172 92.689 142.972 90.8887 145.193 90.8887C147.414 90.8887 149.214 92.689 149.214 94.9099Z" fill="#BEC2D9"/>
<path d="M149.214 107.717C149.214 109.938 147.414 111.739 145.193 111.739C142.972 111.739 141.172 109.938 141.172 107.717C141.172 105.497 142.972 103.696 145.193 103.696C147.414 103.696 149.214 105.497 149.214 107.717Z" fill="#BEC2D9"/>
<path d="M149.214 120.526C149.214 122.747 147.414 124.547 145.193 124.547C142.972 124.547 141.172 122.747 141.172 120.526C141.172 118.305 142.972 116.505 145.193 116.505C147.414 116.505 149.214 118.305 149.214 120.526Z" fill="#BEC2D9"/>
<path d="M149.214 133.334C149.214 135.555 147.414 137.355 145.193 137.355C142.972 137.355 141.172 135.555 141.172 133.334C141.172 131.113 142.972 129.312 145.193 129.312C147.414 129.312 149.214 131.113 149.214 133.334Z" fill="#BEC2D9"/>
<path d="M149.214 146.142C149.214 148.363 147.414 150.163 145.193 150.163C142.972 150.163 141.172 148.363 141.172 146.142C141.172 143.921 142.972 142.121 145.193 142.121C147.414 142.121 149.214 143.921 149.214 146.142Z" fill="#BEC2D9"/>
</svg>
