<svg width="20" height="15" viewBox="0 0 20 15" fill="none" xmlns="http://www.w3.org/2000/svg">
<path d="M19.0574 2.93335C18.9571 2.53275 18.7529 2.1657 18.4654 1.86928C18.1779 1.57286 17.8172 1.35757 17.4198 1.24515C15.968 0.890625 10.1606 0.890625 10.1606 0.890625C10.1606 0.890625 4.35317 0.890625 2.90132 1.27891C2.50396 1.39133 2.1433 1.60662 1.85577 1.90304C1.56825 2.19946 1.36404 2.56651 1.26377 2.96711C0.998058 4.44053 0.868085 5.93523 0.875483 7.4324C0.866011 8.94084 0.995993 10.4469 1.26377 11.9314C1.37431 12.3196 1.5831 12.6727 1.86995 12.9566C2.15681 13.2405 2.51204 13.4456 2.90132 13.5521C4.35317 13.9404 10.1606 13.9404 10.1606 13.9404C10.1606 13.9404 15.968 13.9404 17.4198 13.5521C17.8172 13.4397 18.1779 13.2244 18.4654 12.928C18.7529 12.6316 18.9571 12.2645 19.0574 11.8639C19.3211 10.4016 19.451 8.9183 19.4457 7.4324C19.4551 5.92395 19.3252 4.41786 19.0574 2.93335Z" stroke="#EAEAF1" stroke-opacity="0.8" stroke-width="0.8441" stroke-linecap="round" stroke-linejoin="round"/>
<path d="M8.26172 10.1942L13.1153 7.43403L8.26172 4.67383V10.1942Z" stroke="#EAEAF1" stroke-opacity="0.8" stroke-width="0.8441" stroke-linecap="round" stroke-linejoin="round"/>
</svg>
