<?xml version="1.0" encoding="utf-8"?><svg viewBox="0 0 100 100" xmlns="http://www.w3.org/2000/svg" xmlns:xlink="http://www.w3.org/1999/xlink"><style>:root>svg{display:none}:root>svg:target{display:block}</style><svg viewBox="0 0 7 11" id="arrow" xmlns="http://www.w3.org/2000/svg"><path d="M1.10547 9.9752L5.43047 5.6502L1.10547 1.3252" stroke-width="1.44167" stroke-linecap="round" stroke-linejoin="round"/></svg><svg viewBox="0 0 24 24" id="arrow-right-circle" xmlns="http://www.w3.org/2000/svg"><path d="M12 22C17.5228 22 22 17.5228 22 12C22 6.47715 17.5228 2 12 2C6.47715 2 2 6.47715 2 12C2 17.5228 6.47715 22 12 22Z" stroke-width="2" stroke-linecap="round" stroke-linejoin="round"/><path d="M12 16L16 12L12 8" stroke-width="2" stroke-linecap="round" stroke-linejoin="round"/><path d="M8 12H16" stroke-width="2" stroke-linecap="round" stroke-linejoin="round"/></svg><svg viewBox="0 0 15 16" id="calendar" xmlns="http://www.w3.org/2000/svg"><path d="M8.0625 8.5625C8.0625 8.71168 8.00324 8.85476 7.89775 8.96025C7.79226 9.06574 7.64918 9.125 7.5 9.125C7.35082 9.125 7.20774 9.06574 7.10225 8.96025C6.99676 8.85476 6.9375 8.71168 6.9375 8.5625C6.9375 8.41332 6.99676 8.27024 7.10225 8.16475C7.20774 8.05926 7.35082 8 7.5 8C7.64918 8 7.79226 8.05926 7.89775 8.16475C8.00324 8.27024 8.0625 8.41332 8.0625 8.5625ZM4.125 10.8125C4.27418 10.8125 4.41726 10.7532 4.52275 10.6477C4.62824 10.5423 4.6875 10.3992 4.6875 10.25C4.6875 10.1008 4.62824 9.95774 4.52275 9.85225C4.41726 9.74676 4.27418 9.6875 4.125 9.6875C3.97582 9.6875 3.83274 9.74676 3.72725 9.85225C3.62176 9.95774 3.5625 10.1008 3.5625 10.25C3.5625 10.3992 3.62176 10.5423 3.72725 10.6477C3.83274 10.7532 3.97582 10.8125 4.125 10.8125ZM4.6875 11.9375C4.6875 12.0867 4.62824 12.2298 4.52275 12.3352C4.41726 12.4407 4.27418 12.5 4.125 12.5C3.97582 12.5 3.83274 12.4407 3.72725 12.3352C3.62176 12.2298 3.5625 12.0867 3.5625 11.9375C3.5625 11.7883 3.62176 11.6452 3.72725 11.5398C3.83274 11.4343 3.97582 11.375 4.125 11.375C4.27418 11.375 4.41726 11.4343 4.52275 11.5398C4.62824 11.6452 4.6875 11.7883 4.6875 11.9375ZM5.8125 10.8125C5.96168 10.8125 6.10476 10.7532 6.21025 10.6477C6.31574 10.5423 6.375 10.3992 6.375 10.25C6.375 10.1008 6.31574 9.95774 6.21025 9.85225C6.10476 9.74676 5.96168 9.6875 5.8125 9.6875C5.66332 9.6875 5.52024 9.74676 5.41475 9.85225C5.30926 9.95774 5.25 10.1008 5.25 10.25C5.25 10.3992 5.30926 10.5423 5.41475 10.6477C5.52024 10.7532 5.66332 10.8125 5.8125 10.8125ZM6.375 11.9375C6.375 12.0867 6.31574 12.2298 6.21025 12.3352C6.10476 12.4407 5.96168 12.5 5.8125 12.5C5.66332 12.5 5.52024 12.4407 5.41475 12.3352C5.30926 12.2298 5.25 12.0867 5.25 11.9375C5.25 11.7883 5.30926 11.6452 5.41475 11.5398C5.52024 11.4343 5.66332 11.375 5.8125 11.375C5.96168 11.375 6.10476 11.4343 6.21025 11.5398C6.31574 11.6452 6.375 11.7883 6.375 11.9375ZM7.5 10.8125C7.64918 10.8125 7.79226 10.7532 7.89775 10.6477C8.00324 10.5423 8.0625 10.3992 8.0625 10.25C8.0625 10.1008 8.00324 9.95774 7.89775 9.85225C7.79226 9.74676 7.64918 9.6875 7.5 9.6875C7.35082 9.6875 7.20774 9.74676 7.10225 9.85225C6.99676 9.95774 6.9375 10.1008 6.9375 10.25C6.9375 10.3992 6.99676 10.5423 7.10225 10.6477C7.20774 10.7532 7.35082 10.8125 7.5 10.8125ZM8.0625 11.9375C8.0625 12.0867 8.00324 12.2298 7.89775 12.3352C7.79226 12.4407 7.64918 12.5 7.5 12.5C7.35082 12.5 7.20774 12.4407 7.10225 12.3352C6.99676 12.2298 6.9375 12.0867 6.9375 11.9375C6.9375 11.7883 6.99676 11.6452 7.10225 11.5398C7.20774 11.4343 7.35082 11.375 7.5 11.375C7.64918 11.375 7.79226 11.4343 7.89775 11.5398C8.00324 11.6452 8.0625 11.7883 8.0625 11.9375ZM9.1875 10.8125C9.33668 10.8125 9.47976 10.7532 9.58525 10.6477C9.69074 10.5423 9.75 10.3992 9.75 10.25C9.75 10.1008 9.69074 9.95774 9.58525 9.85225C9.47976 9.74676 9.33668 9.6875 9.1875 9.6875C9.03832 9.6875 8.89524 9.74676 8.78975 9.85225C8.68426 9.95774 8.625 10.1008 8.625 10.25C8.625 10.3992 8.68426 10.5423 8.78975 10.6477C8.89524 10.7532 9.03832 10.8125 9.1875 10.8125ZM9.75 11.9375C9.75 12.0867 9.69074 12.2298 9.58525 12.3352C9.47976 12.4407 9.33668 12.5 9.1875 12.5C9.03832 12.5 8.89524 12.4407 8.78975 12.3352C8.68426 12.2298 8.625 12.0867 8.625 11.9375C8.625 11.7883 8.68426 11.6452 8.78975 11.5398C8.89524 11.4343 9.03832 11.375 9.1875 11.375C9.33668 11.375 9.47976 11.4343 9.58525 11.5398C9.69074 11.6452 9.75 11.7883 9.75 11.9375ZM10.875 10.8125C11.0242 10.8125 11.1673 10.7532 11.2727 10.6477C11.3782 10.5423 11.4375 10.3992 11.4375 10.25C11.4375 10.1008 11.3782 9.95774 11.2727 9.85225C11.1673 9.74676 11.0242 9.6875 10.875 9.6875C10.7258 9.6875 10.5827 9.74676 10.4773 9.85225C10.3718 9.95774 10.3125 10.1008 10.3125 10.25C10.3125 10.3992 10.3718 10.5423 10.4773 10.6477C10.5827 10.7532 10.7258 10.8125 10.875 10.8125ZM9.75 8.5625C9.75 8.71168 9.69074 8.85476 9.58525 8.96025C9.47976 9.06574 9.33668 9.125 9.1875 9.125C9.03832 9.125 8.89524 9.06574 8.78975 8.96025C8.68426 8.85476 8.625 8.71168 8.625 8.5625C8.625 8.41332 8.68426 8.27024 8.78975 8.16475C8.89524 8.05926 9.03832 8 9.1875 8C9.33668 8 9.47976 8.05926 9.58525 8.16475C9.69074 8.27024 9.75 8.41332 9.75 8.5625ZM10.875 9.125C11.0242 9.125 11.1673 9.06574 11.2727 8.96025C11.3782 8.85476 11.4375 8.71168 11.4375 8.5625C11.4375 8.41332 11.3782 8.27024 11.2727 8.16475C11.1673 8.05926 11.0242 8 10.875 8C10.7258 8 10.5827 8.05926 10.4773 8.16475C10.3718 8.27024 10.3125 8.41332 10.3125 8.5625C10.3125 8.71168 10.3718 8.85476 10.4773 8.96025C10.5827 9.06574 10.7258 9.125 10.875 9.125Z"/><path fill-rule="evenodd" clip-rule="evenodd" d="M3.5625 0.6875C3.71168 0.6875 3.85476 0.746763 3.96025 0.852252C4.06574 0.957742 4.125 1.10082 4.125 1.25V2.375H10.875V1.25C10.875 1.10082 10.9343 0.957742 11.0398 0.852252C11.1452 0.746763 11.2883 0.6875 11.4375 0.6875C11.5867 0.6875 11.7298 0.746763 11.8352 0.852252C11.9407 0.957742 12 1.10082 12 1.25V2.375H12.5625C13.1592 2.375 13.7315 2.61205 14.1535 3.03401C14.5754 3.45597 14.8125 4.02826 14.8125 4.625V13.0625C14.8125 13.6592 14.5754 14.2315 14.1535 14.6535C13.7315 15.0754 13.1592 15.3125 12.5625 15.3125H2.4375C1.84076 15.3125 1.26847 15.0754 0.84651 14.6535C0.424553 14.2315 0.1875 13.6592 0.1875 13.0625V4.625C0.1875 4.02826 0.424553 3.45597 0.84651 3.03401C1.26847 2.61205 1.84076 2.375 2.4375 2.375H3V1.25C3 1.10082 3.05926 0.957742 3.16475 0.852252C3.27024 0.746763 3.41332 0.6875 3.5625 0.6875ZM13.6875 7.4375C13.6875 7.13913 13.569 6.85298 13.358 6.642C13.147 6.43103 12.8609 6.3125 12.5625 6.3125H2.4375C2.13913 6.3125 1.85298 6.43103 1.642 6.642C1.43103 6.85298 1.3125 7.13913 1.3125 7.4375V13.0625C1.3125 13.3609 1.43103 13.647 1.642 13.858C1.85298 14.069 2.13913 14.1875 2.4375 14.1875H12.5625C12.8609 14.1875 13.147 14.069 13.358 13.858C13.569 13.647 13.6875 13.3609 13.6875 13.0625V7.4375Z"/></svg><svg viewBox="0 0 11 19" id="facebook" xmlns="http://www.w3.org/2000/svg"><path d="M9.70893 1.20215H7.17663C6.05728 1.20215 4.98378 1.64681 4.19228 2.4383C3.40079 3.2298 2.95613 4.3033 2.95613 5.42265V7.95495H0.423828V11.3313H2.95613V18.0841H6.33253V11.3313H8.86483L9.70893 7.95495H6.33253V5.42265C6.33253 5.19878 6.42146 4.98408 6.57976 4.82578C6.73806 4.66748 6.95276 4.57855 7.17663 4.57855H9.70893V1.20215Z" stroke-opacity="0.8" stroke-width="0.8441" stroke-linecap="round" stroke-linejoin="round"/></svg><svg viewBox="0 0 20 18" id="heart" xmlns="http://www.w3.org/2000/svg"><path d="M19 5.25C19 2.765 16.901 0.75 14.312 0.75C12.377 0.75 10.715 1.876 10 3.483C9.285 1.876 7.623 0.75 5.687 0.75C3.1 0.75 1 2.765 1 5.25C1 12.47 10 17.25 10 17.25C10 17.25 19 12.47 19 5.25Z" stroke-width="1.5" stroke-linecap="round" stroke-linejoin="round"/></svg><svg viewBox="0 0 18 19" id="instagram" xmlns="http://www.w3.org/2000/svg"><path d="M13.5449 5.00195H13.5537M4.68144 1.20215H13.1224C15.4534 1.20215 17.3429 3.09173 17.3429 5.42265V13.8636C17.3429 16.1946 15.4534 18.0841 13.1224 18.0841H4.68144C2.35052 18.0841 0.460938 16.1946 0.460938 13.8636V5.42265C0.460938 3.09173 2.35052 1.20215 4.68144 1.20215ZM12.2788 9.11259C12.383 9.81508 12.263 10.5325 11.9359 11.1629C11.6088 11.7933 11.0913 12.3045 10.4569 12.6238C9.82254 12.9431 9.10366 13.0542 8.40249 12.9414C7.70133 12.8285 7.0536 12.4975 6.55143 11.9953C6.04925 11.4931 5.71821 10.8454 5.60539 10.1443C5.49256 9.4431 5.60369 8.72421 5.92299 8.08985C6.24228 7.45549 6.75346 6.93797 7.38383 6.61088C8.01421 6.28379 8.73167 6.1638 9.43417 6.26797C10.1507 6.37423 10.8141 6.70814 11.3264 7.22037C11.8386 7.73261 12.1725 8.39601 12.2788 9.11259Z" stroke-opacity="0.8" stroke-width="0.8441" stroke-linecap="round" stroke-linejoin="round"/></svg><svg viewBox="0 0 21 21" id="linkedin" xmlns="http://www.w3.org/2000/svg"><path d="M13.506 7.26758C14.8492 7.26758 16.1374 7.80117 17.0872 8.75096C18.037 9.70076 18.5706 10.989 18.5706 12.3322V18.2409H15.1942V12.3322C15.1942 11.8844 15.0163 11.455 14.6997 11.1384C14.3831 10.8218 13.9537 10.644 13.506 10.644C13.0583 10.644 12.6289 10.8218 12.3123 11.1384C11.9957 11.455 11.8178 11.8844 11.8178 12.3322V18.2409H8.44141V12.3322C8.44141 10.989 8.975 9.70076 9.92479 8.75096C10.8746 7.80117 12.1628 7.26758 13.506 7.26758Z" stroke-opacity="0.8" stroke-width="0.8441" stroke-linecap="round" stroke-linejoin="round"/><path d="M5.06585 8.11133H1.68945V18.2405H5.06585V8.11133Z" stroke-opacity="0.8" stroke-width="0.8441" stroke-linecap="round" stroke-linejoin="round"/><path d="M3.37765 5.57855C4.31002 5.57855 5.06585 4.82271 5.06585 3.89035C5.06585 2.95798 4.31002 2.20215 3.37765 2.20215C2.44529 2.20215 1.68945 2.95798 1.68945 3.89035C1.68945 4.82271 2.44529 5.57855 3.37765 5.57855Z" stroke-opacity="0.8" stroke-width="0.8441" stroke-linecap="round" stroke-linejoin="round"/></svg><svg viewBox="0 0 15 16" id="location" xmlns="http://www.w3.org/2000/svg"><path fill-rule="evenodd" clip-rule="evenodd" d="M4.62075 0.935017C4.81611 0.837269 5.03155 0.786377 5.25 0.786377C5.46845 0.786377 5.68389 0.837269 5.87925 0.935017L9.624 2.80852C9.7035 2.84752 9.7965 2.84752 9.876 2.80852L12.7778 1.35727C12.9921 1.25016 13.2303 1.19962 13.4697 1.21044C13.7091 1.22125 13.9418 1.29307 14.1456 1.41908C14.3495 1.54508 14.5178 1.72109 14.6345 1.9304C14.7512 2.13971 14.8125 2.37537 14.8125 2.61502V11.9788C14.8125 12.5113 14.5117 12.9988 14.0347 13.2365L10.3785 15.0643C10.1833 15.1618 9.96816 15.2125 9.75 15.2125C9.53184 15.2125 9.31666 15.1618 9.1215 15.0643L5.376 13.1915C5.33689 13.1719 5.29375 13.1617 5.25 13.1617C5.20625 13.1617 5.16311 13.1719 5.124 13.1915L2.223 14.6428C2.00859 14.75 1.77031 14.8007 1.5308 14.79C1.29129 14.7793 1.05851 14.7075 0.85455 14.5815C0.650595 14.4554 0.482247 14.2793 0.365498 14.0699C0.248749 13.8605 0.187476 13.6248 0.1875 13.385V4.02127C0.1875 3.48877 0.48825 3.00127 0.9645 2.76352L4.62075 0.935767V0.935017ZM5.25 3.50002C5.39918 3.50002 5.54226 3.55928 5.64775 3.66477C5.75324 3.77026 5.8125 3.91333 5.8125 4.06252V10.25C5.8125 10.3992 5.75324 10.5423 5.64775 10.6478C5.54226 10.7533 5.39918 10.8125 5.25 10.8125C5.10082 10.8125 4.95774 10.7533 4.85225 10.6478C4.74676 10.5423 4.6875 10.3992 4.6875 10.25V4.06252C4.6875 3.91333 4.74676 3.77026 4.85225 3.66477C4.95774 3.55928 5.10082 3.50002 5.25 3.50002ZM10.3125 5.75002C10.3125 5.60083 10.2532 5.45776 10.1477 5.35227C10.0423 5.24678 9.89918 5.18752 9.75 5.18752C9.60082 5.18752 9.45774 5.24678 9.35225 5.35227C9.24676 5.45776 9.1875 5.60083 9.1875 5.75002V11.9375C9.1875 12.0867 9.24676 12.2298 9.35225 12.3353C9.45774 12.4408 9.60082 12.5 9.75 12.5C9.89918 12.5 10.0423 12.4408 10.1477 12.3353C10.2532 12.2298 10.3125 12.0867 10.3125 11.9375V5.75002Z"/></svg><svg viewBox="0 0 20 20" id="login" xmlns="http://www.w3.org/2000/svg"><path fill-rule="evenodd" clip-rule="evenodd" d="M16.685 17.097C17.654 16.1865 18.426 15.0869 18.9532 13.8662C19.4803 12.6455 19.7515 11.3297 19.75 10C19.75 4.615 15.385 0.25 10 0.25C4.61501 0.25 0.250007 4.615 0.250007 10C0.248468 11.3297 0.519673 12.6455 1.04686 13.8662C1.57404 15.0869 2.346 16.1865 3.31501 17.097C5.12194 18.8039 7.51435 19.7533 10 19.75C12.4857 19.7533 14.8781 18.8039 16.685 17.097ZM4.14501 15.812C4.84708 14.9336 5.73802 14.2247 6.75164 13.7379C7.76527 13.2511 8.87554 12.9989 10 13C11.1245 12.9989 12.2347 13.2511 13.2484 13.7379C14.262 14.2247 15.1529 14.9336 15.855 15.812C15.089 16.5857 14.1771 17.1996 13.172 17.6181C12.1669 18.0366 11.0887 18.2514 10 18.25C8.91128 18.2514 7.83311 18.0366 6.82803 17.6181C5.82296 17.1996 4.91098 16.5857 4.14501 15.812V15.812ZM13.75 7C13.75 7.99456 13.3549 8.94839 12.6517 9.65165C11.9484 10.3549 10.9946 10.75 10 10.75C9.00544 10.75 8.05162 10.3549 7.34836 9.65165C6.64509 8.94839 6.25001 7.99456 6.25001 7C6.25001 6.00544 6.64509 5.05161 7.34836 4.34835C8.05162 3.64509 9.00544 3.25 10 3.25C10.9946 3.25 11.9484 3.64509 12.6517 4.34835C13.3549 5.05161 13.75 6.00544 13.75 7V7Z"/></svg><svg viewBox="0 0 1561 344" id="spikes" xmlns="http://www.w3.org/2000/svg"><g clip-path="url(#jclip0_409_38)"><path d="M264.34 271.233C289.5 233.221 291.029 190.68 288.279 172.879C260.334 189.216 223.676 245.256 208.84 271.233L194.755 274.151L184.614 288.32L173.5 262.065L157.571 288.32L131.5 262.065L113.062 293.738L100.668 288.32L88.8362 299.989L76.5 257.48L27 299.989L-17.6459 81.6098L-54.8301 -36.7487L-76.8026 -43L-83 350H1751.99L1761 308.741L1751.99 179.13L1704.1 161.627L1671.42 200.802C1685.39 172.462 1686.63 133.704 1685.5 117.867C1633.22 141.539 1578.83 241.366 1558.18 288.32L1551.98 281.652C1565.95 239.31 1557.8 199.551 1551.98 184.965C1519.98 209.637 1509.35 264.148 1508.03 288.32L1491.7 274.151V281.652L1482.12 277.068L1473.1 266.649L1457.89 299.989L1444.93 277.068L1431.98 295.405L1411.13 288.32L1386.34 295.405H1372.26L1359.86 271.233L1349.16 288.32L1329.44 266.649V274.151V288.32H1319.86L1296.76 277.068V299.989H1280.42L1268.59 288.32V299.989H1155.5L1140.14 288.32L1120.42 299.989L1101.82 295.405L1089.99 277.068L1073.66 299.989L1048.3 288.32L1039.85 295.405L1020.5 281.652L1004.92 295.405L967.736 266.649V288.32L952.525 262.065L942.947 274.151L926.608 266.649L905.763 288.32L886.044 271.233L874.212 281.652L864.635 295.405H855.62L849.423 288.32L840.408 295.405L828.577 271.233L809.985 295.405L801 281.652L791.393 295.405L749.138 266.649V288.32L692.235 257.48L684.911 299.989H661.811L649.98 274.151L609.415 288.32L598.711 262.065L576.738 281.652L555.893 251.229L534.5 274.151L529.413 248.312L513.638 262.065L507.441 251.229L468.003 281.652L453.918 266.649L433.635 288.32H425.185L412.79 271.233L398.141 288.32L382.93 257.48L364.901 274.151L359.83 266.649L344.619 281.652L319.266 277.068L284 310.183M264.34 271.233C262.011 274.753 234.75 306.764 232 310.183C234.537 306.71 264.34 271.233 264.34 271.233Z" stroke-width="82"/></g><defs><clipPath id="jclip0_409_38"><rect width="1561" height="344"/></clipPath></defs></svg><svg viewBox="0 0 20 19" id="star-green" xmlns="http://www.w3.org/2000/svg"><path d="M19.988 7.78972L12.5334 7.78972L10.2387 0.861328L7.93036 7.78972L0.47583 7.77644L6.50463 12.0635L4.19631 18.9919L10.2251 14.7048L16.2539 18.9919L13.9592 12.0635L19.988 7.78972Z"/><path d="M14.4752 13.6296L13.9592 12.0635L10.2387 14.7047L14.4752 13.6296Z"/></svg><svg viewBox="0 0 16 15" id="star-light-green" xmlns="http://www.w3.org/2000/svg"><path d="M7.99992 1.33337L10.0599 5.50671L14.6666 6.18004L11.3333 9.42671L12.1199 14.0134L7.99992 11.8467L3.87992 14.0134L4.66659 9.42671L1.33325 6.18004L5.93992 5.50671L7.99992 1.33337Z" stroke-linecap="round" stroke-linejoin="round"/></svg><svg viewBox="0 0 13 12" id="star-white" xmlns="http://www.w3.org/2000/svg"><path d="M6.58655 8.96076L9.04713 8.31274L10.0752 11.6053L6.58655 8.96076ZM12.2493 4.7049H7.91796L6.58655 0.466553L5.25513 4.7049H0.923828L4.42932 7.33197L3.09791 11.5703L6.6034 8.94324L8.76063 7.33197L12.2493 4.7049Z"/></svg><svg viewBox="0 0 107 105" id="subtract" xmlns="http://www.w3.org/2000/svg"><g filter="url(#nfilter0_bd_14_403)"><mask id="npath-1-inside-1_14_403"><path fill-rule="evenodd" clip-rule="evenodd" d="M53.2769 98C80.3388 98 102.277 76.062 102.277 49C102.277 21.938 80.3388 0 53.2769 0C26.2149 0 4.27686 21.938 4.27686 49C4.27686 76.062 26.2149 98 53.2769 98ZM76.8037 50.9164C78.137 50.1466 78.137 48.2221 76.8037 47.4523L43.2906 28.1035C41.9572 27.3337 40.2906 28.296 40.2906 29.8356L40.2906 68.5332C40.2906 70.0728 41.9572 71.0351 43.2906 70.2653L76.8037 50.9164Z"/></mask><path fill-rule="evenodd" clip-rule="evenodd" d="M53.2769 98C80.3388 98 102.277 76.062 102.277 49C102.277 21.938 80.3388 0 53.2769 0C26.2149 0 4.27686 21.938 4.27686 49C4.27686 76.062 26.2149 98 53.2769 98ZM76.8037 50.9164C78.137 50.1466 78.137 48.2221 76.8037 47.4523L43.2906 28.1035C41.9572 27.3337 40.2906 28.296 40.2906 29.8356L40.2906 68.5332C40.2906 70.0728 41.9572 71.0351 43.2906 70.2653L76.8037 50.9164Z" fill-opacity="0.3" shape-rendering="crispEdges"/><path d="M76.8037 47.4523L76.3037 48.3184L76.3037 48.3184L76.8037 47.4523ZM76.8037 50.9164L77.3037 51.7825L77.3037 51.7825L76.8037 50.9164ZM43.2906 28.1035L42.7906 28.9695L42.7906 28.9695L43.2906 28.1035ZM40.2906 29.8356L41.2906 29.8356V29.8356H40.2906ZM40.2906 68.5332L39.2906 68.5332V68.5332H40.2906ZM43.2906 70.2653L42.7906 69.3992L42.7905 69.3992L43.2906 70.2653ZM101.277 49C101.277 75.5097 79.7865 97 53.2769 97V99C80.8911 99 103.277 76.6142 103.277 49H101.277ZM53.2769 1C79.7865 1 101.277 22.4903 101.277 49H103.277C103.277 21.3858 80.8911 -1 53.2769 -1V1ZM5.27686 49C5.27686 22.4903 26.7672 1 53.2769 1V-1C25.6626 -1 3.27686 21.3858 3.27686 49H5.27686ZM53.2769 97C26.7672 97 5.27686 75.5097 5.27686 49H3.27686C3.27686 76.6142 25.6626 99 53.2769 99V97ZM76.3037 48.3184C76.9704 48.7033 76.9704 49.6655 76.3037 50.0504L77.3037 51.7825C79.3037 50.6278 79.3037 47.741 77.3037 46.5863L76.3037 48.3184ZM42.7906 28.9695L76.3037 48.3184L77.3037 46.5863L43.7906 27.2375L42.7906 28.9695ZM41.2906 29.8356C41.2906 29.0658 42.1239 28.5846 42.7906 28.9695L43.7906 27.2375C41.7906 26.0828 39.2906 27.5262 39.2906 29.8356H41.2906ZM41.2906 68.5332L41.2906 29.8356L39.2906 29.8356L39.2906 68.5332L41.2906 68.5332ZM42.7905 69.3992C42.1239 69.7841 41.2906 69.303 41.2906 68.5332H39.2906C39.2906 70.8426 41.7905 72.286 43.7906 71.1313L42.7905 69.3992ZM76.3037 50.0504L42.7906 69.3992L43.7906 71.1313L77.3037 51.7825L76.3037 50.0504Z" fill-opacity="0.47" mask="url(#npath-1-inside-1_14_403)"/></g><defs><filter id="nfilter0_bd_14_403" x="-7.72314" y="-12" width="122" height="122" filterUnits="userSpaceOnUse" color-interpolation-filters="sRGB"><feFlood flood-opacity="0" result="BackgroundImageFix"/><feGaussianBlur in="BackgroundImageFix" stdDeviation="6"/><feComposite in2="SourceAlpha" operator="in" result="effect1_backgroundBlur_14_403"/><feColorMatrix in="SourceAlpha" type="matrix" values="0 0 0 0 0 0 0 0 0 0 0 0 0 0 0 0 0 0 127 0" result="hardAlpha"/><feOffset dy="4"/><feGaussianBlur stdDeviation="2"/><feComposite in2="hardAlpha" operator="out"/><feColorMatrix type="matrix" values="0 0 0 0 0 0 0 0 0 0 0 0 0 0 0 0 0 0 0.25 0"/><feBlend mode="normal" in2="effect1_backgroundBlur_14_403" result="effect2_dropShadow_14_403"/><feBlend mode="normal" in="SourceGraphic" in2="effect2_dropShadow_14_403" result="shape"/></filter></defs></svg><svg viewBox="0 0 17 16" id="travelers" xmlns="http://www.w3.org/2000/svg"><path d="M2.875 3.78125C2.875 2.96074 3.20095 2.17383 3.78114 1.59364C4.36133 1.01345 5.14824 0.6875 5.96875 0.6875C6.78926 0.6875 7.57617 1.01345 8.15636 1.59364C8.73655 2.17383 9.0625 2.96074 9.0625 3.78125C9.0625 4.60176 8.73655 5.38867 8.15636 5.96886C7.57617 6.54905 6.78926 6.875 5.96875 6.875C5.14824 6.875 4.36133 6.54905 3.78114 5.96886C3.20095 5.38867 2.875 4.60176 2.875 3.78125ZM10.1875 5.46875C10.1875 5.13634 10.253 4.80719 10.3802 4.50008C10.5074 4.19298 10.6938 3.91393 10.9289 3.67889C11.1639 3.44384 11.443 3.25739 11.7501 3.13018C12.0572 3.00297 12.3863 2.9375 12.7188 2.9375C13.0512 2.9375 13.3803 3.00297 13.6874 3.13018C13.9945 3.25739 14.2736 3.44384 14.5086 3.67889C14.7437 3.91393 14.9301 4.19298 15.0573 4.50008C15.1845 4.80719 15.25 5.13634 15.25 5.46875C15.25 6.14008 14.9833 6.78391 14.5086 7.25861C14.0339 7.73332 13.3901 8 12.7188 8C12.0474 8 11.4036 7.73332 10.9289 7.25861C10.4542 6.78391 10.1875 6.14008 10.1875 5.46875ZM0.625 13.3438C0.625 11.9265 1.188 10.5673 2.19015 9.56515C3.1923 8.563 4.5515 8 5.96875 8C7.386 8 8.7452 8.563 9.74735 9.56515C10.7495 10.5673 11.3125 11.9265 11.3125 13.3438V13.346L11.3117 13.4352C11.3102 13.5306 11.2843 13.624 11.2367 13.7067C11.1891 13.7894 11.1212 13.8585 11.0395 13.9078C9.5089 14.8295 7.75545 15.3152 5.96875 15.3125C4.11475 15.3125 2.37925 14.7995 0.89875 13.9078C0.816888 13.8586 0.748875 13.7895 0.701115 13.7068C0.653355 13.6242 0.627419 13.5307 0.62575 13.4352L0.625 13.3438ZM12.4375 13.346L12.4368 13.454C12.4326 13.704 12.3729 13.9499 12.262 14.174C13.5713 14.2548 14.8791 13.9937 16.057 13.4165C16.1481 13.372 16.2255 13.3036 16.2809 13.2188C16.3364 13.1339 16.3678 13.0356 16.372 12.9342C16.3985 12.3052 16.2621 11.6799 15.9759 11.1191C15.6898 10.5582 15.2637 10.0807 14.7389 9.73288C14.2141 9.38503 13.6083 9.17861 12.9803 9.13361C12.3523 9.08861 11.7233 9.20654 11.1542 9.476C11.9891 10.5924 12.4392 11.9497 12.4368 13.3438V13.346H12.4375Z"/></svg><svg viewBox="0 0 21 17" id="twitter" xmlns="http://www.w3.org/2000/svg"><path d="M19.6718 1.04657C18.8634 1.61674 17.9685 2.05283 17.0213 2.33805C16.5129 1.75352 15.8373 1.33922 15.0858 1.15118C14.3343 0.963143 13.5432 1.01044 12.8194 1.28668C12.0957 1.56292 11.4742 2.05477 11.0391 2.69571C10.604 3.33664 10.3763 4.09575 10.3867 4.87035V5.71445C8.90327 5.75291 7.43339 5.42392 6.10793 4.75677C4.78247 4.08962 3.64257 3.10503 2.78976 1.89067C2.78976 1.89067 -0.586637 9.48757 7.01026 12.864C5.27186 14.044 3.20097 14.6357 1.10156 14.5522C8.69846 18.7727 17.9836 14.5522 17.9836 4.84502C17.9828 4.6099 17.9602 4.37536 17.916 4.14442C18.7775 3.29483 19.3855 2.22216 19.6718 1.04657V1.04657Z" stroke-opacity="0.8" stroke-width="0.8441" stroke-linecap="round" stroke-linejoin="round"/></svg><svg viewBox="0 0 150 151" id="video-circles" xmlns="http://www.w3.org/2000/svg"><path d="M8.04232 4.97235C8.04232 7.19319 6.24199 8.99353 4.02116 8.99353C1.80033 8.99353 0 7.19319 0 4.97235C0 2.75152 1.80033 0.951172 4.02116 0.951172C6.24199 0.951172 8.04232 2.75152 8.04232 4.97235Z"/><path d="M8.04232 17.7809C8.04232 20.0018 6.24199 21.8021 4.02116 21.8021C1.80033 21.8021 0 20.0018 0 17.7809C0 15.5601 1.80033 13.7598 4.02116 13.7598C6.24199 13.7598 8.04232 15.5601 8.04232 17.7809Z"/><path d="M8.04232 30.5886C8.04232 32.8094 6.24199 34.6097 4.02116 34.6097C1.80033 34.6097 0 32.8094 0 30.5886C0 28.3677 1.80033 26.5674 4.02116 26.5674C6.24199 26.5674 8.04232 28.3677 8.04232 30.5886Z"/><path d="M8.04232 43.3972C8.04232 45.618 6.24199 47.4183 4.02116 47.4183C1.80033 47.4183 0 45.618 0 43.3972C0 41.1763 1.80033 39.376 4.02116 39.376C6.24199 39.376 8.04232 41.1763 8.04232 43.3972Z"/><path d="M8.04232 56.2048C8.04232 58.4256 6.24199 60.226 4.02116 60.226C1.80033 60.226 0 58.4256 0 56.2048C0 53.9839 1.80033 52.1836 4.02116 52.1836C6.24199 52.1836 8.04232 53.9839 8.04232 56.2048Z"/><path d="M8.04232 69.0134C8.04232 71.2342 6.24199 73.0345 4.02116 73.0345C1.80033 73.0345 0 71.2342 0 69.0134C0 66.7925 1.80033 64.9922 4.02116 64.9922C6.24199 64.9922 8.04232 66.7925 8.04232 69.0134Z"/><path d="M20.8509 4.97235C20.8509 7.19319 19.0506 8.99353 16.8298 8.99353C14.6089 8.99353 12.8086 7.19319 12.8086 4.97235C12.8086 2.75152 14.6089 0.951172 16.8298 0.951172C19.0506 0.951172 20.8509 2.75152 20.8509 4.97235Z"/><path d="M20.8509 17.7809C20.8509 20.0018 19.0506 21.8021 16.8298 21.8021C14.6089 21.8021 12.8086 20.0018 12.8086 17.7809C12.8086 15.5601 14.6089 13.7598 16.8298 13.7598C19.0506 13.7598 20.8509 15.5601 20.8509 17.7809Z"/><path d="M20.8509 30.5886C20.8509 32.8094 19.0506 34.6097 16.8298 34.6097C14.6089 34.6097 12.8086 32.8094 12.8086 30.5886C12.8086 28.3677 14.6089 26.5674 16.8298 26.5674C19.0506 26.5674 20.8509 28.3677 20.8509 30.5886Z"/><path d="M20.8509 43.3972C20.8509 45.618 19.0506 47.4183 16.8298 47.4183C14.6089 47.4183 12.8086 45.618 12.8086 43.3972C12.8086 41.1763 14.6089 39.376 16.8298 39.376C19.0506 39.376 20.8509 41.1763 20.8509 43.3972Z"/><path d="M20.8509 56.2048C20.8509 58.4256 19.0506 60.226 16.8298 60.226C14.6089 60.226 12.8086 58.4256 12.8086 56.2048C12.8086 53.9839 14.6089 52.1836 16.8298 52.1836C19.0506 52.1836 20.8509 53.9839 20.8509 56.2048Z"/><path d="M20.8509 69.0134C20.8509 71.2342 19.0506 73.0345 16.8298 73.0345C14.6089 73.0345 12.8086 71.2342 12.8086 69.0134C12.8086 66.7925 14.6089 64.9922 16.8298 64.9922C19.0506 64.9922 20.8509 66.7925 20.8509 69.0134Z"/><path d="M33.6576 4.97235C33.6576 7.19319 31.8572 8.99353 29.6364 8.99353C27.4156 8.99353 25.6152 7.19319 25.6152 4.97235C25.6152 2.75152 27.4156 0.951172 29.6364 0.951172C31.8572 0.951172 33.6576 2.75152 33.6576 4.97235Z"/><path d="M33.6576 17.7809C33.6576 20.0018 31.8572 21.8021 29.6364 21.8021C27.4156 21.8021 25.6152 20.0018 25.6152 17.7809C25.6152 15.5601 27.4156 13.7598 29.6364 13.7598C31.8572 13.7598 33.6576 15.5601 33.6576 17.7809Z"/><path d="M33.6576 30.5886C33.6576 32.8094 31.8572 34.6097 29.6364 34.6097C27.4156 34.6097 25.6152 32.8094 25.6152 30.5886C25.6152 28.3677 27.4156 26.5674 29.6364 26.5674C31.8572 26.5674 33.6576 28.3677 33.6576 30.5886Z"/><path d="M33.6576 43.3972C33.6576 45.618 31.8572 47.4183 29.6364 47.4183C27.4156 47.4183 25.6152 45.618 25.6152 43.3972C25.6152 41.1763 27.4156 39.376 29.6364 39.376C31.8572 39.376 33.6576 41.1763 33.6576 43.3972Z"/><path d="M33.6576 56.2048C33.6576 58.4256 31.8572 60.226 29.6364 60.226C27.4156 60.226 25.6152 58.4256 25.6152 56.2048C25.6152 53.9839 27.4156 52.1836 29.6364 52.1836C31.8572 52.1836 33.6576 53.9839 33.6576 56.2048Z"/><path d="M33.6576 69.0134C33.6576 71.2342 31.8572 73.0345 29.6364 73.0345C27.4156 73.0345 25.6152 71.2342 25.6152 69.0134C25.6152 66.7925 27.4156 64.9922 29.6364 64.9922C31.8572 64.9922 33.6576 66.7925 33.6576 69.0134Z"/><path d="M46.4661 4.97235C46.4661 7.19319 44.6658 8.99353 42.445 8.99353C40.2242 8.99353 38.4238 7.19319 38.4238 4.97235C38.4238 2.75152 40.2242 0.951172 42.445 0.951172C44.6658 0.951172 46.4661 2.75152 46.4661 4.97235Z"/><path d="M46.4661 17.7809C46.4661 20.0018 44.6658 21.8021 42.445 21.8021C40.2242 21.8021 38.4238 20.0018 38.4238 17.7809C38.4238 15.5601 40.2242 13.7598 42.445 13.7598C44.6658 13.7598 46.4661 15.5601 46.4661 17.7809Z"/><path d="M46.4661 30.5886C46.4661 32.8094 44.6658 34.6097 42.445 34.6097C40.2242 34.6097 38.4238 32.8094 38.4238 30.5886C38.4238 28.3677 40.2242 26.5674 42.445 26.5674C44.6658 26.5674 46.4661 28.3677 46.4661 30.5886Z"/><path d="M46.4661 43.3972C46.4661 45.618 44.6658 47.4183 42.445 47.4183C40.2242 47.4183 38.4238 45.618 38.4238 43.3972C38.4238 41.1763 40.2242 39.376 42.445 39.376C44.6658 39.376 46.4661 41.1763 46.4661 43.3972Z"/><path d="M46.4661 56.2048C46.4661 58.4256 44.6658 60.226 42.445 60.226C40.2242 60.226 38.4238 58.4256 38.4238 56.2048C38.4238 53.9839 40.2242 52.1836 42.445 52.1836C44.6658 52.1836 46.4661 53.9839 46.4661 56.2048Z"/><path d="M46.4661 69.0134C46.4661 71.2342 44.6658 73.0345 42.445 73.0345C40.2242 73.0345 38.4238 71.2342 38.4238 69.0134C38.4238 66.7925 40.2242 64.9922 42.445 64.9922C44.6658 64.9922 46.4661 66.7925 46.4661 69.0134Z"/><path d="M59.2747 4.97235C59.2747 7.19319 57.4744 8.99353 55.2536 8.99353C53.0328 8.99353 51.2324 7.19319 51.2324 4.97235C51.2324 2.75152 53.0328 0.951172 55.2536 0.951172C57.4744 0.951172 59.2747 2.75152 59.2747 4.97235Z"/><path d="M59.2747 17.7809C59.2747 20.0018 57.4744 21.8021 55.2536 21.8021C53.0328 21.8021 51.2324 20.0018 51.2324 17.7809C51.2324 15.5601 53.0328 13.7598 55.2536 13.7598C57.4744 13.7598 59.2747 15.5601 59.2747 17.7809Z"/><path d="M59.2747 30.5886C59.2747 32.8094 57.4744 34.6097 55.2536 34.6097C53.0328 34.6097 51.2324 32.8094 51.2324 30.5886C51.2324 28.3677 53.0328 26.5674 55.2536 26.5674C57.4744 26.5674 59.2747 28.3677 59.2747 30.5886Z"/><path d="M59.2747 43.3972C59.2747 45.618 57.4744 47.4183 55.2536 47.4183C53.0328 47.4183 51.2324 45.618 51.2324 43.3972C51.2324 41.1763 53.0328 39.376 55.2536 39.376C57.4744 39.376 59.2747 41.1763 59.2747 43.3972Z"/><path d="M59.2747 56.2048C59.2747 58.4256 57.4744 60.226 55.2536 60.226C53.0328 60.226 51.2324 58.4256 51.2324 56.2048C51.2324 53.9839 53.0328 52.1836 55.2536 52.1836C57.4744 52.1836 59.2747 53.9839 59.2747 56.2048Z"/><path d="M59.2747 69.0134C59.2747 71.2342 57.4744 73.0345 55.2536 73.0345C53.0328 73.0345 51.2324 71.2342 51.2324 69.0134C51.2324 66.7925 53.0328 64.9922 55.2536 64.9922C57.4744 64.9922 59.2747 66.7925 59.2747 69.0134Z"/><path d="M72.0853 4.97235C72.0853 7.19319 70.285 8.99353 68.0641 8.99353C65.8433 8.99353 64.043 7.19319 64.043 4.97235C64.043 2.75152 65.8433 0.951172 68.0641 0.951172C70.285 0.951172 72.0853 2.75152 72.0853 4.97235Z"/><path d="M72.0853 17.7809C72.0853 20.0018 70.285 21.8021 68.0641 21.8021C65.8433 21.8021 64.043 20.0018 64.043 17.7809C64.043 15.5601 65.8433 13.7598 68.0641 13.7598C70.285 13.7598 72.0853 15.5601 72.0853 17.7809Z"/><path d="M72.0853 30.5886C72.0853 32.8094 70.285 34.6097 68.0641 34.6097C65.8433 34.6097 64.043 32.8094 64.043 30.5886C64.043 28.3677 65.8433 26.5674 68.0641 26.5674C70.285 26.5674 72.0853 28.3677 72.0853 30.5886Z"/><path d="M72.0853 43.3972C72.0853 45.618 70.285 47.4183 68.0641 47.4183C65.8433 47.4183 64.043 45.618 64.043 43.3972C64.043 41.1763 65.8433 39.376 68.0641 39.376C70.285 39.376 72.0853 41.1763 72.0853 43.3972Z"/><path d="M72.0853 56.2048C72.0853 58.4256 70.285 60.226 68.0641 60.226C65.8433 60.226 64.043 58.4256 64.043 56.2048C64.043 53.9839 65.8433 52.1836 68.0641 52.1836C70.285 52.1836 72.0853 53.9839 72.0853 56.2048Z"/><path d="M72.0853 69.0134C72.0853 71.2342 70.285 73.0345 68.0641 73.0345C65.8433 73.0345 64.043 71.2342 64.043 69.0134C64.043 66.7925 65.8433 64.9922 68.0641 64.9922C70.285 64.9922 72.0853 66.7925 72.0853 69.0134Z"/><path d="M8.04232 82.1012C8.04232 84.3221 6.24199 86.1224 4.02116 86.1224C1.80033 86.1224 0 84.3221 0 82.1012C0 79.8804 1.80033 78.0801 4.02116 78.0801C6.24199 78.0801 8.04232 79.8804 8.04232 82.1012Z"/><path d="M8.04232 94.9098C8.04232 97.1307 6.24199 98.931 4.02116 98.931C1.80033 98.931 0 97.1307 0 94.9098C0 92.689 1.80033 90.8886 4.02116 90.8886C6.24199 90.8886 8.04232 92.689 8.04232 94.9098Z"/><path d="M8.04232 107.717C8.04232 109.938 6.24199 111.739 4.02116 111.739C1.80033 111.739 0 109.938 0 107.717C0 105.497 1.80033 103.696 4.02116 103.696C6.24199 103.696 8.04232 105.497 8.04232 107.717Z"/><path d="M8.04232 120.526C8.04232 122.747 6.24199 124.547 4.02116 124.547C1.80033 124.547 0 122.747 0 120.526C0 118.305 1.80033 116.505 4.02116 116.505C6.24199 116.505 8.04232 118.305 8.04232 120.526Z"/><path d="M8.04232 133.334C8.04232 135.555 6.24199 137.355 4.02116 137.355C1.80033 137.355 0 135.555 0 133.334C0 131.113 1.80033 129.313 4.02116 129.313C6.24199 129.313 8.04232 131.113 8.04232 133.334Z"/><path d="M8.04232 146.142C8.04232 148.363 6.24199 150.163 4.02116 150.163C1.80033 150.163 0 148.363 0 146.142C0 143.921 1.80033 142.121 4.02116 142.121C6.24199 142.121 8.04232 143.921 8.04232 146.142Z"/><path d="M20.8509 82.1012C20.8509 84.3221 19.0506 86.1224 16.8298 86.1224C14.6089 86.1224 12.8086 84.3221 12.8086 82.1012C12.8086 79.8804 14.6089 78.0801 16.8298 78.0801C19.0506 78.0801 20.8509 79.8804 20.8509 82.1012Z"/><path d="M20.8509 94.9098C20.8509 97.1307 19.0506 98.931 16.8298 98.931C14.6089 98.931 12.8086 97.1307 12.8086 94.9098C12.8086 92.689 14.6089 90.8886 16.8298 90.8886C19.0506 90.8886 20.8509 92.689 20.8509 94.9098Z"/><path d="M20.8509 107.717C20.8509 109.938 19.0506 111.739 16.8298 111.739C14.6089 111.739 12.8086 109.938 12.8086 107.717C12.8086 105.497 14.6089 103.696 16.8298 103.696C19.0506 103.696 20.8509 105.497 20.8509 107.717Z"/><path d="M20.8509 120.526C20.8509 122.747 19.0506 124.547 16.8298 124.547C14.6089 124.547 12.8086 122.747 12.8086 120.526C12.8086 118.305 14.6089 116.505 16.8298 116.505C19.0506 116.505 20.8509 118.305 20.8509 120.526Z"/><path d="M20.8509 133.334C20.8509 135.555 19.0506 137.355 16.8298 137.355C14.6089 137.355 12.8086 135.555 12.8086 133.334C12.8086 131.113 14.6089 129.312 16.8298 129.312C19.0506 129.312 20.8509 131.113 20.8509 133.334Z"/><path d="M20.8509 146.142C20.8509 148.363 19.0506 150.163 16.8298 150.163C14.6089 150.163 12.8086 148.363 12.8086 146.142C12.8086 143.921 14.6089 142.121 16.8298 142.121C19.0506 142.121 20.8509 143.921 20.8509 146.142Z"/><path d="M33.6576 82.1012C33.6576 84.3221 31.8572 86.1224 29.6364 86.1224C27.4156 86.1224 25.6152 84.3221 25.6152 82.1012C25.6152 79.8804 27.4156 78.0801 29.6364 78.0801C31.8572 78.0801 33.6576 79.8804 33.6576 82.1012Z"/><path d="M33.6576 94.9098C33.6576 97.1307 31.8572 98.931 29.6364 98.931C27.4156 98.931 25.6152 97.1307 25.6152 94.9098C25.6152 92.689 27.4156 90.8886 29.6364 90.8886C31.8572 90.8886 33.6576 92.689 33.6576 94.9098Z"/><path d="M33.6576 107.717C33.6576 109.938 31.8572 111.739 29.6364 111.739C27.4156 111.739 25.6152 109.938 25.6152 107.717C25.6152 105.497 27.4156 103.696 29.6364 103.696C31.8572 103.696 33.6576 105.497 33.6576 107.717Z"/><path d="M33.6576 120.526C33.6576 122.747 31.8572 124.547 29.6364 124.547C27.4156 124.547 25.6152 122.747 25.6152 120.526C25.6152 118.305 27.4156 116.505 29.6364 116.505C31.8572 116.505 33.6576 118.305 33.6576 120.526Z"/><path d="M33.6576 133.334C33.6576 135.555 31.8572 137.355 29.6364 137.355C27.4156 137.355 25.6152 135.555 25.6152 133.334C25.6152 131.113 27.4156 129.312 29.6364 129.312C31.8572 129.312 33.6576 131.113 33.6576 133.334Z"/><path d="M33.6576 146.142C33.6576 148.363 31.8572 150.163 29.6364 150.163C27.4156 150.163 25.6152 148.363 25.6152 146.142C25.6152 143.921 27.4156 142.121 29.6364 142.121C31.8572 142.121 33.6576 143.921 33.6576 146.142Z"/><path d="M46.4661 82.1012C46.4661 84.3221 44.6658 86.1224 42.445 86.1224C40.2242 86.1224 38.4238 84.3221 38.4238 82.1012C38.4238 79.8804 40.2242 78.0801 42.445 78.0801C44.6658 78.0801 46.4661 79.8804 46.4661 82.1012Z"/><path d="M46.4661 94.9098C46.4661 97.1307 44.6658 98.931 42.445 98.931C40.2242 98.931 38.4238 97.1307 38.4238 94.9098C38.4238 92.689 40.2242 90.8886 42.445 90.8886C44.6658 90.8886 46.4661 92.689 46.4661 94.9098Z"/><path d="M46.4661 107.717C46.4661 109.938 44.6658 111.739 42.445 111.739C40.2242 111.739 38.4238 109.938 38.4238 107.717C38.4238 105.497 40.2242 103.696 42.445 103.696C44.6658 103.696 46.4661 105.497 46.4661 107.717Z"/><path d="M46.4661 120.526C46.4661 122.747 44.6658 124.547 42.445 124.547C40.2242 124.547 38.4238 122.747 38.4238 120.526C38.4238 118.305 40.2242 116.505 42.445 116.505C44.6658 116.505 46.4661 118.305 46.4661 120.526Z"/><path d="M46.4661 133.334C46.4661 135.555 44.6658 137.355 42.445 137.355C40.2242 137.355 38.4238 135.555 38.4238 133.334C38.4238 131.113 40.2242 129.312 42.445 129.312C44.6658 129.312 46.4661 131.113 46.4661 133.334Z"/><path d="M46.4661 146.142C46.4661 148.363 44.6658 150.163 42.445 150.163C40.2242 150.163 38.4238 148.363 38.4238 146.142C38.4238 143.921 40.2242 142.121 42.445 142.121C44.6658 142.121 46.4661 143.921 46.4661 146.142Z"/><path d="M59.2747 82.1012C59.2747 84.3221 57.4744 86.1224 55.2536 86.1224C53.0328 86.1224 51.2324 84.3221 51.2324 82.1012C51.2324 79.8804 53.0328 78.0801 55.2536 78.0801C57.4744 78.0801 59.2747 79.8804 59.2747 82.1012Z"/><path d="M59.2747 94.9098C59.2747 97.1307 57.4744 98.931 55.2536 98.931C53.0328 98.931 51.2324 97.1307 51.2324 94.9098C51.2324 92.689 53.0328 90.8886 55.2536 90.8886C57.4744 90.8886 59.2747 92.689 59.2747 94.9098Z"/><path d="M59.2747 107.717C59.2747 109.938 57.4744 111.739 55.2536 111.739C53.0328 111.739 51.2324 109.938 51.2324 107.717C51.2324 105.497 53.0328 103.696 55.2536 103.696C57.4744 103.696 59.2747 105.497 59.2747 107.717Z"/><path d="M59.2747 120.526C59.2747 122.747 57.4744 124.547 55.2536 124.547C53.0328 124.547 51.2324 122.747 51.2324 120.526C51.2324 118.305 53.0328 116.505 55.2536 116.505C57.4744 116.505 59.2747 118.305 59.2747 120.526Z"/><path d="M59.2747 133.334C59.2747 135.555 57.4744 137.355 55.2536 137.355C53.0328 137.355 51.2324 135.555 51.2324 133.334C51.2324 131.113 53.0328 129.312 55.2536 129.312C57.4744 129.312 59.2747 131.113 59.2747 133.334Z"/><path d="M59.2747 146.142C59.2747 148.363 57.4744 150.163 55.2536 150.163C53.0328 150.163 51.2324 148.363 51.2324 146.142C51.2324 143.921 53.0328 142.121 55.2536 142.121C57.4744 142.121 59.2747 143.921 59.2747 146.142Z"/><path d="M72.0853 82.1012C72.0853 84.3221 70.285 86.1224 68.0641 86.1224C65.8433 86.1224 64.043 84.3221 64.043 82.1012C64.043 79.8804 65.8433 78.0801 68.0641 78.0801C70.285 78.0801 72.0853 79.8804 72.0853 82.1012Z"/><path d="M72.0853 94.9098C72.0853 97.1307 70.285 98.931 68.0641 98.931C65.8433 98.931 64.043 97.1307 64.043 94.9098C64.043 92.689 65.8433 90.8886 68.0641 90.8886C70.285 90.8886 72.0853 92.689 72.0853 94.9098Z"/><path d="M72.0853 107.717C72.0853 109.938 70.285 111.739 68.0641 111.739C65.8433 111.739 64.043 109.938 64.043 107.717C64.043 105.497 65.8433 103.696 68.0641 103.696C70.285 103.696 72.0853 105.497 72.0853 107.717Z"/><path d="M72.0853 120.526C72.0853 122.747 70.285 124.547 68.0641 124.547C65.8433 124.547 64.043 122.747 64.043 120.526C64.043 118.305 65.8433 116.505 68.0641 116.505C70.285 116.505 72.0853 118.305 72.0853 120.526Z"/><path d="M72.0853 133.334C72.0853 135.555 70.285 137.355 68.0641 137.355C65.8433 137.355 64.043 135.555 64.043 133.334C64.043 131.113 65.8433 129.312 68.0641 129.312C70.285 129.312 72.0853 131.113 72.0853 133.334Z"/><path d="M72.0853 146.142C72.0853 148.363 70.285 150.163 68.0641 150.163C65.8433 150.163 64.043 148.363 64.043 146.142C64.043 143.921 65.8433 142.121 68.0641 142.121C70.285 142.121 72.0853 143.921 72.0853 146.142Z"/><path d="M85.1712 4.97235C85.1712 7.19319 83.3709 8.99353 81.1501 8.99353C78.9292 8.99353 77.1289 7.19319 77.1289 4.97235C77.1289 2.75152 78.9292 0.951172 81.1501 0.951172C83.3709 0.951172 85.1712 2.75152 85.1712 4.97235Z"/><path d="M85.1712 17.7809C85.1712 20.0018 83.3709 21.8021 81.1501 21.8021C78.9292 21.8021 77.1289 20.0018 77.1289 17.7809C77.1289 15.5601 78.9292 13.7598 81.1501 13.7598C83.3709 13.7598 85.1712 15.5601 85.1712 17.7809Z"/><path d="M85.1712 30.5886C85.1712 32.8094 83.3709 34.6097 81.1501 34.6097C78.9292 34.6097 77.1289 32.8094 77.1289 30.5886C77.1289 28.3677 78.9292 26.5674 81.1501 26.5674C83.3709 26.5674 85.1712 28.3677 85.1712 30.5886Z"/><path d="M85.1712 43.3972C85.1712 45.618 83.3709 47.4183 81.1501 47.4183C78.9292 47.4183 77.1289 45.618 77.1289 43.3972C77.1289 41.1763 78.9292 39.376 81.1501 39.376C83.3709 39.376 85.1712 41.1763 85.1712 43.3972Z"/><path d="M85.1712 56.2048C85.1712 58.4256 83.3709 60.226 81.1501 60.226C78.9292 60.226 77.1289 58.4256 77.1289 56.2048C77.1289 53.9839 78.9292 52.1836 81.1501 52.1836C83.3709 52.1836 85.1712 53.9839 85.1712 56.2048Z"/><path d="M85.1712 69.0134C85.1712 71.2342 83.3709 73.0345 81.1501 73.0345C78.9292 73.0345 77.1289 71.2342 77.1289 69.0134C77.1289 66.7925 78.9292 64.9922 81.1501 64.9922C83.3709 64.9922 85.1712 66.7925 85.1712 69.0134Z"/><path d="M97.9798 4.97235C97.9798 7.19319 96.1795 8.99353 93.9587 8.99353C91.7378 8.99353 89.9375 7.19319 89.9375 4.97235C89.9375 2.75152 91.7378 0.951172 93.9587 0.951172C96.1795 0.951172 97.9798 2.75152 97.9798 4.97235Z"/><path d="M97.9798 17.7809C97.9798 20.0018 96.1795 21.8021 93.9587 21.8021C91.7378 21.8021 89.9375 20.0018 89.9375 17.7809C89.9375 15.5601 91.7378 13.7598 93.9587 13.7598C96.1795 13.7598 97.9798 15.5601 97.9798 17.7809Z"/><path d="M97.9798 30.5886C97.9798 32.8094 96.1795 34.6097 93.9587 34.6097C91.7378 34.6097 89.9375 32.8094 89.9375 30.5886C89.9375 28.3677 91.7378 26.5674 93.9587 26.5674C96.1795 26.5674 97.9798 28.3677 97.9798 30.5886Z"/><path d="M97.9798 43.3972C97.9798 45.618 96.1795 47.4183 93.9587 47.4183C91.7378 47.4183 89.9375 45.618 89.9375 43.3972C89.9375 41.1763 91.7378 39.376 93.9587 39.376C96.1795 39.376 97.9798 41.1763 97.9798 43.3972Z"/><path d="M97.9798 56.2048C97.9798 58.4256 96.1795 60.226 93.9587 60.226C91.7378 60.226 89.9375 58.4256 89.9375 56.2048C89.9375 53.9839 91.7378 52.1836 93.9587 52.1836C96.1795 52.1836 97.9798 53.9839 97.9798 56.2048Z"/><path d="M97.9798 69.0134C97.9798 71.2342 96.1795 73.0345 93.9587 73.0345C91.7378 73.0345 89.9375 71.2342 89.9375 69.0134C89.9375 66.7925 91.7378 64.9922 93.9587 64.9922C96.1795 64.9922 97.9798 66.7925 97.9798 69.0134Z"/><path d="M110.786 4.97235C110.786 7.19319 108.986 8.99353 106.765 8.99353C104.544 8.99353 102.744 7.19319 102.744 4.97235C102.744 2.75152 104.544 0.951172 106.765 0.951172C108.986 0.951172 110.786 2.75152 110.786 4.97235Z"/><path d="M110.786 17.7809C110.786 20.0018 108.986 21.8021 106.765 21.8021C104.544 21.8021 102.744 20.0018 102.744 17.7809C102.744 15.5601 104.544 13.7598 106.765 13.7598C108.986 13.7598 110.786 15.5601 110.786 17.7809Z"/><path d="M110.786 30.5886C110.786 32.8094 108.986 34.6097 106.765 34.6097C104.544 34.6097 102.744 32.8094 102.744 30.5886C102.744 28.3677 104.544 26.5674 106.765 26.5674C108.986 26.5674 110.786 28.3677 110.786 30.5886Z"/><path d="M110.786 43.3972C110.786 45.618 108.986 47.4183 106.765 47.4183C104.544 47.4183 102.744 45.618 102.744 43.3972C102.744 41.1763 104.544 39.376 106.765 39.376C108.986 39.376 110.786 41.1763 110.786 43.3972Z"/><path d="M110.786 56.2048C110.786 58.4256 108.986 60.226 106.765 60.226C104.544 60.226 102.744 58.4256 102.744 56.2048C102.744 53.9839 104.544 52.1836 106.765 52.1836C108.986 52.1836 110.786 53.9839 110.786 56.2048Z"/><path d="M110.786 69.0134C110.786 71.2342 108.986 73.0345 106.765 73.0345C104.544 73.0345 102.744 71.2342 102.744 69.0134C102.744 66.7925 104.544 64.9922 106.765 64.9922C108.986 64.9922 110.786 66.7925 110.786 69.0134Z"/><path d="M123.595 4.97235C123.595 7.19319 121.795 8.99353 119.574 8.99353C117.353 8.99353 115.553 7.19319 115.553 4.97235C115.553 2.75152 117.353 0.951172 119.574 0.951172C121.795 0.951172 123.595 2.75152 123.595 4.97235Z"/><path d="M123.595 17.7809C123.595 20.0018 121.795 21.8021 119.574 21.8021C117.353 21.8021 115.553 20.0018 115.553 17.7809C115.553 15.5601 117.353 13.7598 119.574 13.7598C121.795 13.7598 123.595 15.5601 123.595 17.7809Z"/><path d="M123.595 30.5886C123.595 32.8094 121.795 34.6097 119.574 34.6097C117.353 34.6097 115.553 32.8094 115.553 30.5886C115.553 28.3677 117.353 26.5674 119.574 26.5674C121.795 26.5674 123.595 28.3677 123.595 30.5886Z"/><path d="M123.595 43.3972C123.595 45.618 121.795 47.4183 119.574 47.4183C117.353 47.4183 115.553 45.618 115.553 43.3972C115.553 41.1763 117.353 39.376 119.574 39.376C121.795 39.376 123.595 41.1763 123.595 43.3972Z"/><path d="M123.595 56.2048C123.595 58.4256 121.795 60.226 119.574 60.226C117.353 60.226 115.553 58.4256 115.553 56.2048C115.553 53.9839 117.353 52.1836 119.574 52.1836C121.795 52.1836 123.595 53.9839 123.595 56.2048Z"/><path d="M123.595 69.0134C123.595 71.2342 121.795 73.0345 119.574 73.0345C117.353 73.0345 115.553 71.2342 115.553 69.0134C115.553 66.7925 117.353 64.9922 119.574 64.9922C121.795 64.9922 123.595 66.7925 123.595 69.0134Z"/><path d="M136.404 4.97235C136.404 7.19319 134.603 8.99353 132.382 8.99353C130.162 8.99353 128.361 7.19319 128.361 4.97235C128.361 2.75152 130.162 0.951172 132.382 0.951172C134.603 0.951172 136.404 2.75152 136.404 4.97235Z"/><path d="M136.404 17.7809C136.404 20.0018 134.603 21.8021 132.382 21.8021C130.162 21.8021 128.361 20.0018 128.361 17.7809C128.361 15.5601 130.162 13.7598 132.382 13.7598C134.603 13.7598 136.404 15.5601 136.404 17.7809Z"/><path d="M136.404 30.5886C136.404 32.8094 134.603 34.6097 132.382 34.6097C130.162 34.6097 128.361 32.8094 128.361 30.5886C128.361 28.3677 130.162 26.5674 132.382 26.5674C134.603 26.5674 136.404 28.3677 136.404 30.5886Z"/><path d="M136.404 43.3972C136.404 45.618 134.603 47.4183 132.382 47.4183C130.162 47.4183 128.361 45.618 128.361 43.3972C128.361 41.1763 130.162 39.376 132.382 39.376C134.603 39.376 136.404 41.1763 136.404 43.3972Z"/><path d="M136.404 56.2048C136.404 58.4256 134.603 60.226 132.382 60.226C130.162 60.226 128.361 58.4256 128.361 56.2048C128.361 53.9839 130.162 52.1836 132.382 52.1836C134.603 52.1836 136.404 53.9839 136.404 56.2048Z"/><path d="M136.404 69.0134C136.404 71.2342 134.603 73.0345 132.382 73.0345C130.162 73.0345 128.361 71.2342 128.361 69.0134C128.361 66.7925 130.162 64.9922 132.382 64.9922C134.603 64.9922 136.404 66.7925 136.404 69.0134Z"/><path d="M149.214 4.97235C149.214 7.19319 147.414 8.99353 145.193 8.99353C142.972 8.99353 141.172 7.19319 141.172 4.97235C141.172 2.75152 142.972 0.951172 145.193 0.951172C147.414 0.951172 149.214 2.75152 149.214 4.97235Z"/><path d="M149.214 17.7809C149.214 20.0018 147.414 21.8021 145.193 21.8021C142.972 21.8021 141.172 20.0018 141.172 17.7809C141.172 15.5601 142.972 13.7598 145.193 13.7598C147.414 13.7598 149.214 15.5601 149.214 17.7809Z"/><path d="M149.214 30.5886C149.214 32.8094 147.414 34.6097 145.193 34.6097C142.972 34.6097 141.172 32.8094 141.172 30.5886C141.172 28.3677 142.972 26.5674 145.193 26.5674C147.414 26.5674 149.214 28.3677 149.214 30.5886Z"/><path d="M149.214 43.3972C149.214 45.618 147.414 47.4183 145.193 47.4183C142.972 47.4183 141.172 45.618 141.172 43.3972C141.172 41.1763 142.972 39.376 145.193 39.376C147.414 39.376 149.214 41.1763 149.214 43.3972Z"/><path d="M149.214 56.2048C149.214 58.4256 147.414 60.226 145.193 60.226C142.972 60.226 141.172 58.4256 141.172 56.2048C141.172 53.9839 142.972 52.1836 145.193 52.1836C147.414 52.1836 149.214 53.9839 149.214 56.2048Z"/><path d="M149.214 69.0134C149.214 71.2342 147.414 73.0345 145.193 73.0345C142.972 73.0345 141.172 71.2342 141.172 69.0134C141.172 66.7925 142.972 64.9922 145.193 64.9922C147.414 64.9922 149.214 66.7925 149.214 69.0134Z"/><path d="M85.1712 82.1013C85.1712 84.3221 83.3709 86.1224 81.1501 86.1224C78.9292 86.1224 77.1289 84.3221 77.1289 82.1013C77.1289 79.8804 78.9292 78.0801 81.1501 78.0801C83.3709 78.0801 85.1712 79.8804 85.1712 82.1013Z"/><path d="M85.1712 94.9099C85.1712 97.1307 83.3709 98.931 81.1501 98.931C78.9292 98.931 77.1289 97.1307 77.1289 94.9099C77.1289 92.689 78.9292 90.8887 81.1501 90.8887C83.3709 90.8887 85.1712 92.689 85.1712 94.9099Z"/><path d="M85.1712 107.717C85.1712 109.938 83.3709 111.739 81.1501 111.739C78.9292 111.739 77.1289 109.938 77.1289 107.717C77.1289 105.497 78.9292 103.696 81.1501 103.696C83.3709 103.696 85.1712 105.497 85.1712 107.717Z"/><path d="M85.1712 120.526C85.1712 122.747 83.3709 124.547 81.1501 124.547C78.9292 124.547 77.1289 122.747 77.1289 120.526C77.1289 118.305 78.9292 116.505 81.1501 116.505C83.3709 116.505 85.1712 118.305 85.1712 120.526Z"/><path d="M85.1712 133.334C85.1712 135.555 83.3709 137.355 81.1501 137.355C78.9292 137.355 77.1289 135.555 77.1289 133.334C77.1289 131.113 78.9292 129.313 81.1501 129.313C83.3709 129.313 85.1712 131.113 85.1712 133.334Z"/><path d="M85.1712 146.142C85.1712 148.363 83.3709 150.163 81.1501 150.163C78.9292 150.163 77.1289 148.363 77.1289 146.142C77.1289 143.921 78.9292 142.121 81.1501 142.121C83.3709 142.121 85.1712 143.921 85.1712 146.142Z"/><path d="M97.9798 82.1013C97.9798 84.3221 96.1795 86.1224 93.9587 86.1224C91.7378 86.1224 89.9375 84.3221 89.9375 82.1013C89.9375 79.8804 91.7378 78.0801 93.9587 78.0801C96.1795 78.0801 97.9798 79.8804 97.9798 82.1013Z"/><path d="M97.9798 94.9099C97.9798 97.1307 96.1795 98.931 93.9587 98.931C91.7378 98.931 89.9375 97.1307 89.9375 94.9099C89.9375 92.689 91.7378 90.8887 93.9587 90.8887C96.1795 90.8887 97.9798 92.689 97.9798 94.9099Z"/><path d="M97.9798 107.717C97.9798 109.938 96.1795 111.739 93.9587 111.739C91.7378 111.739 89.9375 109.938 89.9375 107.717C89.9375 105.497 91.7378 103.696 93.9587 103.696C96.1795 103.696 97.9798 105.497 97.9798 107.717Z"/><path d="M97.9798 120.526C97.9798 122.747 96.1795 124.547 93.9587 124.547C91.7378 124.547 89.9375 122.747 89.9375 120.526C89.9375 118.305 91.7378 116.505 93.9587 116.505C96.1795 116.505 97.9798 118.305 97.9798 120.526Z"/><path d="M97.9798 133.334C97.9798 135.555 96.1795 137.355 93.9587 137.355C91.7378 137.355 89.9375 135.555 89.9375 133.334C89.9375 131.113 91.7378 129.312 93.9587 129.312C96.1795 129.312 97.9798 131.113 97.9798 133.334Z"/><path d="M97.9798 146.142C97.9798 148.363 96.1795 150.163 93.9587 150.163C91.7378 150.163 89.9375 148.363 89.9375 146.142C89.9375 143.921 91.7378 142.121 93.9587 142.121C96.1795 142.121 97.9798 143.921 97.9798 146.142Z"/><path d="M110.786 82.1013C110.786 84.3221 108.986 86.1224 106.765 86.1224C104.544 86.1224 102.744 84.3221 102.744 82.1013C102.744 79.8804 104.544 78.0801 106.765 78.0801C108.986 78.0801 110.786 79.8804 110.786 82.1013Z"/><path d="M110.786 94.9099C110.786 97.1307 108.986 98.931 106.765 98.931C104.544 98.931 102.744 97.1307 102.744 94.9099C102.744 92.689 104.544 90.8887 106.765 90.8887C108.986 90.8887 110.786 92.689 110.786 94.9099Z"/><path d="M110.786 107.717C110.786 109.938 108.986 111.739 106.765 111.739C104.544 111.739 102.744 109.938 102.744 107.717C102.744 105.497 104.544 103.696 106.765 103.696C108.986 103.696 110.786 105.497 110.786 107.717Z"/><path d="M110.786 120.526C110.786 122.747 108.986 124.547 106.765 124.547C104.544 124.547 102.744 122.747 102.744 120.526C102.744 118.305 104.544 116.505 106.765 116.505C108.986 116.505 110.786 118.305 110.786 120.526Z"/><path d="M110.786 133.334C110.786 135.555 108.986 137.355 106.765 137.355C104.544 137.355 102.744 135.555 102.744 133.334C102.744 131.113 104.544 129.312 106.765 129.312C108.986 129.312 110.786 131.113 110.786 133.334Z"/><path d="M110.786 146.142C110.786 148.363 108.986 150.163 106.765 150.163C104.544 150.163 102.744 148.363 102.744 146.142C102.744 143.921 104.544 142.121 106.765 142.121C108.986 142.121 110.786 143.921 110.786 146.142Z"/><path d="M123.595 82.1013C123.595 84.3221 121.795 86.1224 119.574 86.1224C117.353 86.1224 115.553 84.3221 115.553 82.1013C115.553 79.8804 117.353 78.0801 119.574 78.0801C121.795 78.0801 123.595 79.8804 123.595 82.1013Z"/><path d="M123.595 94.9099C123.595 97.1307 121.795 98.931 119.574 98.931C117.353 98.931 115.553 97.1307 115.553 94.9099C115.553 92.689 117.353 90.8887 119.574 90.8887C121.795 90.8887 123.595 92.689 123.595 94.9099Z"/><path d="M123.595 107.717C123.595 109.938 121.795 111.739 119.574 111.739C117.353 111.739 115.553 109.938 115.553 107.717C115.553 105.497 117.353 103.696 119.574 103.696C121.795 103.696 123.595 105.497 123.595 107.717Z"/><path d="M123.595 120.526C123.595 122.747 121.795 124.547 119.574 124.547C117.353 124.547 115.553 122.747 115.553 120.526C115.553 118.305 117.353 116.505 119.574 116.505C121.795 116.505 123.595 118.305 123.595 120.526Z"/><path d="M123.595 133.334C123.595 135.555 121.795 137.355 119.574 137.355C117.353 137.355 115.553 135.555 115.553 133.334C115.553 131.113 117.353 129.312 119.574 129.312C121.795 129.312 123.595 131.113 123.595 133.334Z"/><path d="M123.595 146.142C123.595 148.363 121.795 150.163 119.574 150.163C117.353 150.163 115.553 148.363 115.553 146.142C115.553 143.921 117.353 142.121 119.574 142.121C121.795 142.121 123.595 143.921 123.595 146.142Z"/><path d="M136.404 82.1013C136.404 84.3221 134.603 86.1224 132.382 86.1224C130.162 86.1224 128.361 84.3221 128.361 82.1013C128.361 79.8804 130.162 78.0801 132.382 78.0801C134.603 78.0801 136.404 79.8804 136.404 82.1013Z"/><path d="M136.404 94.9099C136.404 97.1307 134.603 98.931 132.382 98.931C130.162 98.931 128.361 97.1307 128.361 94.9099C128.361 92.689 130.162 90.8887 132.382 90.8887C134.603 90.8887 136.404 92.689 136.404 94.9099Z"/><path d="M136.404 107.717C136.404 109.938 134.603 111.739 132.382 111.739C130.162 111.739 128.361 109.938 128.361 107.717C128.361 105.497 130.162 103.696 132.382 103.696C134.603 103.696 136.404 105.497 136.404 107.717Z"/><path d="M136.404 120.526C136.404 122.747 134.603 124.547 132.382 124.547C130.162 124.547 128.361 122.747 128.361 120.526C128.361 118.305 130.162 116.505 132.382 116.505C134.603 116.505 136.404 118.305 136.404 120.526Z"/><path d="M136.404 133.334C136.404 135.555 134.603 137.355 132.382 137.355C130.162 137.355 128.361 135.555 128.361 133.334C128.361 131.113 130.162 129.312 132.382 129.312C134.603 129.312 136.404 131.113 136.404 133.334Z"/><path d="M136.404 146.142C136.404 148.363 134.603 150.163 132.382 150.163C130.162 150.163 128.361 148.363 128.361 146.142C128.361 143.921 130.162 142.121 132.382 142.121C134.603 142.121 136.404 143.921 136.404 146.142Z"/><path d="M149.214 82.1013C149.214 84.3221 147.414 86.1224 145.193 86.1224C142.972 86.1224 141.172 84.3221 141.172 82.1013C141.172 79.8804 142.972 78.0801 145.193 78.0801C147.414 78.0801 149.214 79.8804 149.214 82.1013Z"/><path d="M149.214 94.9099C149.214 97.1307 147.414 98.931 145.193 98.931C142.972 98.931 141.172 97.1307 141.172 94.9099C141.172 92.689 142.972 90.8887 145.193 90.8887C147.414 90.8887 149.214 92.689 149.214 94.9099Z"/><path d="M149.214 107.717C149.214 109.938 147.414 111.739 145.193 111.739C142.972 111.739 141.172 109.938 141.172 107.717C141.172 105.497 142.972 103.696 145.193 103.696C147.414 103.696 149.214 105.497 149.214 107.717Z"/><path d="M149.214 120.526C149.214 122.747 147.414 124.547 145.193 124.547C142.972 124.547 141.172 122.747 141.172 120.526C141.172 118.305 142.972 116.505 145.193 116.505C147.414 116.505 149.214 118.305 149.214 120.526Z"/><path d="M149.214 133.334C149.214 135.555 147.414 137.355 145.193 137.355C142.972 137.355 141.172 135.555 141.172 133.334C141.172 131.113 142.972 129.312 145.193 129.312C147.414 129.312 149.214 131.113 149.214 133.334Z"/><path d="M149.214 146.142C149.214 148.363 147.414 150.163 145.193 150.163C142.972 150.163 141.172 148.363 141.172 146.142C141.172 143.921 142.972 142.121 145.193 142.121C147.414 142.121 149.214 143.921 149.214 146.142Z"/></svg><svg viewBox="0 0 20 15" id="youtube" xmlns="http://www.w3.org/2000/svg"><path d="M19.0574 2.93335C18.9571 2.53275 18.7529 2.1657 18.4654 1.86928C18.1779 1.57286 17.8172 1.35757 17.4198 1.24515C15.968 0.890625 10.1606 0.890625 10.1606 0.890625C10.1606 0.890625 4.35317 0.890625 2.90132 1.27891C2.50396 1.39133 2.1433 1.60662 1.85577 1.90304C1.56825 2.19946 1.36404 2.56651 1.26377 2.96711C0.998058 4.44053 0.868085 5.93523 0.875483 7.4324C0.866011 8.94084 0.995993 10.4469 1.26377 11.9314C1.37431 12.3196 1.5831 12.6727 1.86995 12.9566C2.15681 13.2405 2.51204 13.4456 2.90132 13.5521C4.35317 13.9404 10.1606 13.9404 10.1606 13.9404C10.1606 13.9404 15.968 13.9404 17.4198 13.5521C17.8172 13.4397 18.1779 13.2244 18.4654 12.928C18.7529 12.6316 18.9571 12.2645 19.0574 11.8639C19.3211 10.4016 19.451 8.9183 19.4457 7.4324C19.4551 5.92395 19.3252 4.41786 19.0574 2.93335Z" stroke-opacity="0.8" stroke-width="0.8441" stroke-linecap="round" stroke-linejoin="round"/><path d="M8.26172 10.1942L13.1153 7.43403L8.26172 4.67383V10.1942Z" stroke-opacity="0.8" stroke-width="0.8441" stroke-linecap="round" stroke-linejoin="round"/></svg></svg>