<svg width="1561" height="344" viewBox="0 0 1561 344" fill="none" xmlns="http://www.w3.org/2000/svg">
<g clip-path="url(#clip0_409_38)">
<path d="M264.34 271.233C289.5 233.221 291.029 190.68 288.279 172.879C260.334 189.216 223.676 245.256 208.84 271.233L194.755 274.151L184.614 288.32L173.5 262.065L157.571 288.32L131.5 262.065L113.062 293.738L100.668 288.32L88.8362 299.989L76.5 257.48L27 299.989L-17.6459 81.6098L-54.8301 -36.7487L-76.8026 -43L-83 350H1751.99L1761 308.741L1751.99 179.13L1704.1 161.627L1671.42 200.802C1685.39 172.462 1686.63 133.704 1685.5 117.867C1633.22 141.539 1578.83 241.366 1558.18 288.32L1551.98 281.652C1565.95 239.31 1557.8 199.551 1551.98 184.965C1519.98 209.637 1509.35 264.148 1508.03 288.32L1491.7 274.151V281.652L1482.12 277.068L1473.1 266.649L1457.89 299.989L1444.93 277.068L1431.98 295.405L1411.13 288.32L1386.34 295.405H1372.26L1359.86 271.233L1349.16 288.32L1329.44 266.649V274.151V288.32H1319.86L1296.76 277.068V299.989H1280.42L1268.59 288.32V299.989H1155.5L1140.14 288.32L1120.42 299.989L1101.82 295.405L1089.99 277.068L1073.66 299.989L1048.3 288.32L1039.85 295.405L1020.5 281.652L1004.92 295.405L967.736 266.649V288.32L952.525 262.065L942.947 274.151L926.608 266.649L905.763 288.32L886.044 271.233L874.212 281.652L864.635 295.405H855.62L849.423 288.32L840.408 295.405L828.577 271.233L809.985 295.405L801 281.652L791.393 295.405L749.138 266.649V288.32L692.235 257.48L684.911 299.989H661.811L649.98 274.151L609.415 288.32L598.711 262.065L576.738 281.652L555.893 251.229L534.5 274.151L529.413 248.312L513.638 262.065L507.441 251.229L468.003 281.652L453.918 266.649L433.635 288.32H425.185L412.79 271.233L398.141 288.32L382.93 257.48L364.901 274.151L359.83 266.649L344.619 281.652L319.266 277.068L284 310.183M264.34 271.233C262.011 274.753 234.75 306.764 232 310.183C234.537 306.71 264.34 271.233 264.34 271.233Z" stroke="#0C1011" stroke-width="82"/>
</g>
<defs>
<clipPath id="clip0_409_38">
<rect width="1561" height="344" fill="white"/>
</clipPath>
</defs>
</svg>
